<?xml version="1.0" encoding="UTF-8"?>
<svg version="1.1" xmlns="http://www.w3.org/2000/svg" width="512" height="512">
<path d="M0 0 C125.07 0 250.14 0 379 0 C379 69.3 379 138.6 379 210 C370.585 211.98 370.585 211.98 362 214 C347.60450559 220.22178148 335.20744563 228.58510873 328 243 C326.72898437 242.84402344 325.45796875 242.68804687 324.1484375 242.52734375 C318.08975425 241.85217909 312.02405328 241.66363294 305.93359375 241.48242188 C305.08152344 241.44826172 304.22945313 241.41410156 303.3515625 241.37890625 C302.58666504 241.3538501 301.82176758 241.32879395 301.03369141 241.30297852 C299 241 299 241 296 239 C294.78936387 232.42686665 294.41955089 225.68676349 297.875 219.8125 C299.45421562 217.98393455 301.0773408 216.19236571 302.7421875 214.44140625 C306.59614022 210.27406983 308.50085784 205.64545345 309.546875 200.1015625 C310.12055016 197.14791068 310.6380722 194.68777804 312 192 C315.218512 190.14526427 318.36058459 189.56267278 322 189 C325.07456984 188.33669415 325.07456984 188.33669415 326.125 186.125 C328.23108471 181.01022285 328.62347794 176.48318957 328 171 C326.30698141 167.67442777 325.07699694 165.66015924 321.890625 163.70703125 C320 162 320 162 319.53125 159.3203125 C319.51578125 157.73863281 319.51578125 157.73863281 319.5 156.125 C318.87245827 143.60205616 314.915449 133.5069939 306.5 124.25 C305.675 123.5075 304.85 122.765 304 122 C303.113125 121.175 302.22625 120.35 301.3125 119.5 C290.54342377 110.74667394 278.6397965 109.63936673 265.25 109.625 C264.0640625 109.60050781 262.878125 109.57601562 261.65625 109.55078125 C247.59358448 109.50472449 235.17411661 113.48260729 224.71484375 123.1015625 C215.24957847 133.11528241 211.58977176 145.01664044 210.625 158.625 C209.83528207 162.88947683 208.44199909 163.54142922 205 166 C202.06232663 170.4571596 200.96670659 174.73512408 202 180 C203.8010967 184.47472468 206.01716335 187.91679026 210.5 189.9375 C213.34420434 190.80091917 216.08758626 191.44644191 219 192 C219.20753906 192.95519531 219.41507813 193.91039062 219.62890625 194.89453125 C221.76915345 204.09926629 224.50126424 213.58731348 232.1953125 219.76171875 C234.94628567 223.17364002 234.51041645 226.37719969 234.375 230.625 C234.37306641 231.78902344 234.37306641 231.78902344 234.37109375 232.9765625 C234.28137401 238.71862599 234.28137401 238.71862599 232 241 C230.05151367 241.25537109 230.05151367 241.25537109 227.66796875 241.2734375 C226.79317871 241.29100098 225.91838867 241.30856445 225.01708984 241.32666016 C224.0833252 241.3426123 223.14956055 241.35856445 222.1875 241.375 C208.49717327 241.84548186 198.16863792 244.83830306 187 253 C186.19191139 253.57975429 185.38382278 254.15950857 184.55124664 254.75683117 C181.7760691 257.19688994 180.51893541 259.45657549 178.74255371 262.67195129 C176.15579488 266.28505757 174.81458193 267.7673696 170.50178528 268.99902916 C166.04473513 269.49889133 161.59446393 269.36198343 157.11914062 269.2487793 C155.37602763 269.24540645 153.63289962 269.24688346 151.8897934 269.25279713 C147.23556215 269.25527334 142.5844632 269.19169153 137.93096924 269.11408234 C133.55902624 269.0512719 129.18783151 269.04848002 124.81542969 269.04064941 C112.04320738 268.98300843 99.27156372 268.82943418 86.5 268.6875 C57.955 268.460625 29.41 268.23375 0 268 C0 179.56 0 91.12 0 0 Z M26 24 C23.79612586 27.30581121 23.74781693 28.31452055 23.74121094 32.15820312 C23.73490662 33.20939331 23.72860229 34.2605835 23.72210693 35.34362793 C23.7261554 36.47804321 23.73020386 37.6124585 23.734375 38.78125 C23.73246155 39.94628052 23.7305481 41.11131104 23.72857666 42.31164551 C23.72721489 44.776288 23.73091076 47.24093767 23.73925781 49.70556641 C23.74995715 53.48486393 23.73936195 57.26368607 23.7265625 61.04296875 C23.7278841 63.43489689 23.73044649 65.82682473 23.734375 68.21875 C23.73032654 69.35316528 23.72627808 70.48758057 23.72210693 71.65637207 C23.72841125 72.70756226 23.73471558 73.75875244 23.74121094 74.84179688 C23.74280212 75.76762573 23.74439331 76.69345459 23.74603271 77.64733887 C23.84572734 80.26930342 23.84572734 80.26930342 26 83 C28.39817214 83.46609797 28.39817214 83.46609797 31.22827148 83.40405273 C32.86523232 83.42307899 32.86523232 83.42307899 34.53526306 83.44248962 C35.71858719 83.43955399 36.90191132 83.43661835 38.12109375 83.43359375 C39.3319313 83.4388356 40.54276886 83.44407745 41.79029846 83.44947815 C44.35506421 83.45591157 46.91985941 83.45454441 49.48461914 83.44604492 C53.41801325 83.43754212 57.34995293 83.4662695 61.28320312 83.49804688 C63.7708329 83.49965901 66.25846525 83.49908112 68.74609375 83.49609375 C69.92739365 83.50732773 71.10869354 83.51856171 72.32579041 83.53013611 C73.96747948 83.51606468 73.96747948 83.51606468 75.64233398 83.50170898 C76.60670883 83.50154282 77.57108368 83.50137665 78.56468201 83.50120544 C81.10613184 83.20114084 81.10613184 83.20114084 82.81059265 81.28565979 C84.19819101 78.61914039 84.38010152 76.92471745 84.38818359 73.92773438 C84.39764008 72.91988892 84.40709656 71.91204346 84.4168396 70.87365723 C84.41076691 69.79128784 84.40469421 68.70891846 84.3984375 67.59375 C84.40274277 65.91847229 84.40274277 65.91847229 84.40713501 64.20935059 C84.40917566 61.84903455 84.40364576 59.48870161 84.39111328 57.12841797 C84.37506045 53.51361307 84.39096278 49.89992634 84.41015625 46.28515625 C84.40817382 43.99218503 84.40433015 41.69921451 84.3984375 39.40625 C84.40451019 38.32388062 84.41058289 37.24151123 84.4168396 36.12634277 C84.40738312 35.11849731 84.39792664 34.11065186 84.38818359 33.07226562 C84.38460342 31.74467224 84.38460342 31.74467224 84.38095093 30.39025879 C83.90617307 27.41128732 83.19160665 26.07509922 81 24 C78.50201565 23.40068378 78.50201565 23.40068378 75.64233398 23.49829102 C74.5478746 23.48891006 73.45341522 23.47952911 72.32579041 23.46986389 C71.14449051 23.48109787 69.96319061 23.49233185 68.74609375 23.50390625 C67.53429947 23.50245102 66.32250519 23.50099579 65.07398987 23.49949646 C62.51097205 23.50115745 59.94794447 23.5127409 57.38500977 23.53344727 C53.44960441 23.56241091 49.51554423 23.55405756 45.58007812 23.54101562 C43.09374342 23.54725231 40.60741298 23.55564269 38.12109375 23.56640625 C36.93776962 23.56347061 35.7544455 23.56053497 34.53526306 23.55751038 C33.44395584 23.57019455 32.35264862 23.58287872 31.22827148 23.59594727 C30.26469223 23.60135025 29.30111298 23.60675323 28.30833435 23.61231995 C27.16570885 23.80422157 27.16570885 23.80422157 26 24 Z M115 26 C114.69343668 28.41217423 114.69343668 28.41217423 114.74121094 31.24414062 C114.73490662 32.33867554 114.72860229 33.43321045 114.72210693 34.56091309 C114.7261554 35.74737427 114.73020386 36.93383545 114.734375 38.15625 C114.73246155 39.36945923 114.7305481 40.58266846 114.72857666 41.8326416 C114.72721366 44.40161343 114.73091808 46.97059212 114.73925781 49.53955078 C114.7499554 53.48355504 114.73936606 57.42710375 114.7265625 61.37109375 C114.72788407 63.86198018 114.73044642 66.35286632 114.734375 68.84375 C114.73032654 70.03021118 114.72627808 71.21667236 114.72210693 72.43908691 C114.72841125 73.53362183 114.73471558 74.62815674 114.74121094 75.75585938 C114.74280212 76.72245483 114.74439331 77.68905029 114.74603271 78.68493652 C114.77693601 81.19412365 114.77693601 81.19412365 117 83 C119.41217423 83.30656332 119.41217423 83.30656332 122.24414062 83.25878906 C123.88594299 83.26824554 123.88594299 83.26824554 125.56091309 83.27789307 C126.74737427 83.2738446 127.93383545 83.26979614 129.15625 83.265625 C130.36945923 83.26753845 131.58266846 83.2694519 132.8326416 83.27142334 C135.40161343 83.27278634 137.97059212 83.26908192 140.53955078 83.26074219 C144.48355504 83.2500446 148.42710375 83.26063394 152.37109375 83.2734375 C154.86198018 83.27211593 157.35286632 83.26955358 159.84375 83.265625 C161.62344177 83.27169769 161.62344177 83.27169769 163.43908691 83.27789307 C164.53362183 83.27158875 165.62815674 83.26528442 166.75585938 83.25878906 C167.72245483 83.25719788 168.68905029 83.25560669 169.68493652 83.25396729 C172.19412365 83.22306399 172.19412365 83.22306399 174 81 C174.30656332 78.58782577 174.30656332 78.58782577 174.25878906 75.75585938 C174.26509338 74.66132446 174.27139771 73.56678955 174.27789307 72.43908691 C174.2738446 71.25262573 174.26979614 70.06616455 174.265625 68.84375 C174.26753845 67.63054077 174.2694519 66.41733154 174.27142334 65.1673584 C174.27278634 62.59838657 174.26908192 60.02940788 174.26074219 57.46044922 C174.2500446 53.51644496 174.26063394 49.57289625 174.2734375 45.62890625 C174.27211593 43.13801982 174.26955358 40.64713368 174.265625 38.15625 C174.26967346 36.96978882 174.27372192 35.78332764 174.27789307 34.56091309 C174.27158875 33.46637817 174.26528442 32.37184326 174.25878906 31.24414062 C174.25719788 30.27754517 174.25560669 29.31094971 174.25396729 28.31506348 C174.22306399 25.80587635 174.22306399 25.80587635 172 24 C169.58782577 23.69343668 169.58782577 23.69343668 166.75585938 23.74121094 C165.66132446 23.73490662 164.56678955 23.72860229 163.43908691 23.72210693 C161.65939514 23.72817963 161.65939514 23.72817963 159.84375 23.734375 C158.63054077 23.73246155 157.41733154 23.7305481 156.1673584 23.72857666 C153.59838657 23.72721366 151.02940788 23.73091808 148.46044922 23.73925781 C144.51644496 23.7499554 140.57289625 23.73936606 136.62890625 23.7265625 C134.13801982 23.72788407 131.64713368 23.73044642 129.15625 23.734375 C127.96978882 23.73032654 126.78332764 23.72627808 125.56091309 23.72210693 C123.91911072 23.73156342 123.91911072 23.73156342 122.24414062 23.74121094 C120.79424744 23.74359772 120.79424744 23.74359772 119.31506348 23.74603271 C116.80587635 23.77693601 116.80587635 23.77693601 115 26 Z M206.18940735 25.71434021 C204.80180899 28.38085961 204.61989848 30.07528255 204.61181641 33.07226562 C204.60235992 34.08011108 204.59290344 35.08795654 204.5831604 36.12634277 C204.58923309 37.20871216 204.59530579 38.29108154 204.6015625 39.40625 C204.59869232 40.52310181 204.59582214 41.63995361 204.59286499 42.79064941 C204.59082434 45.15096545 204.59635424 47.51129839 204.60888672 49.87158203 C204.62493955 53.48638693 204.60903722 57.10007366 204.58984375 60.71484375 C204.59182618 63.00781497 204.59566985 65.30078549 204.6015625 67.59375 C204.59548981 68.67611938 204.58941711 69.75848877 204.5831604 70.87365723 C204.59261688 71.88150269 204.60207336 72.88934814 204.61181641 73.92773438 C204.61420319 74.81279663 204.61658997 75.69785889 204.61904907 76.60974121 C205.09382693 79.58871268 205.80839335 80.92490078 208 83 C210.49798435 83.59931622 210.49798435 83.59931622 213.35766602 83.50170898 C214.4521254 83.51108994 215.54658478 83.52047089 216.67420959 83.53013611 C217.85550949 83.51890213 219.03680939 83.50766815 220.25390625 83.49609375 C221.46570053 83.49754898 222.67749481 83.49900421 223.92601013 83.50050354 C226.48902795 83.49884255 229.05205553 83.4872591 231.61499023 83.46655273 C235.55039559 83.43758909 239.48445577 83.44594244 243.41992188 83.45898438 C245.90625658 83.45274769 248.39258702 83.44435731 250.87890625 83.43359375 C252.06223038 83.43652939 253.2455545 83.43946503 254.46473694 83.44248962 C256.10169777 83.42346336 256.10169777 83.42346336 257.77172852 83.40405273 C259.2170974 83.39594826 259.2170974 83.39594826 260.69166565 83.38768005 C261.45341599 83.25974564 262.21516632 83.13181122 263 83 C265.20387414 79.69418879 265.25218307 78.68547945 265.25878906 74.84179688 C265.26509338 73.79060669 265.27139771 72.7394165 265.27789307 71.65637207 C265.2738446 70.52195679 265.26979614 69.3875415 265.265625 68.21875 C265.26753845 67.05371948 265.2694519 65.88868896 265.27142334 64.68835449 C265.27278511 62.223712 265.26908924 59.75906233 265.26074219 57.29443359 C265.25004285 53.51513607 265.26063805 49.73631393 265.2734375 45.95703125 C265.2721159 43.56510311 265.26955351 41.17317527 265.265625 38.78125 C265.26967346 37.64683472 265.27372192 36.51241943 265.27789307 35.34362793 C265.27158875 34.29243774 265.26528442 33.24124756 265.25878906 32.15820312 C265.25719788 31.23237427 265.25560669 30.30654541 265.25396729 29.35266113 C265.15427266 26.73069658 265.15427266 26.73069658 263 24 C260.60182786 23.53390203 260.60182786 23.53390203 257.77172852 23.59594727 C256.6804213 23.58326309 255.58911407 23.57057892 254.46473694 23.55751038 C253.28141281 23.56044601 252.09808868 23.56338165 250.87890625 23.56640625 C249.6680687 23.5611644 248.45723114 23.55592255 247.20970154 23.55052185 C244.64493579 23.54408843 242.08014059 23.54545559 239.51538086 23.55395508 C235.58198675 23.56245788 231.65004707 23.5337305 227.71679688 23.50195312 C225.2291671 23.50034099 222.74153475 23.50091888 220.25390625 23.50390625 C219.07260635 23.49267227 217.89130646 23.48143829 216.67420959 23.46986389 C215.57975021 23.47924484 214.48529083 23.48862579 213.35766602 23.49829102 C212.39329117 23.49845718 211.42891632 23.49862335 210.43531799 23.49879456 C207.89386816 23.79885916 207.89386816 23.79885916 206.18940735 25.71434021 Z M298 24 C295.79612586 27.30581121 295.74781693 28.31452055 295.74121094 32.15820312 C295.73490662 33.20939331 295.72860229 34.2605835 295.72210693 35.34362793 C295.7261554 36.47804321 295.73020386 37.6124585 295.734375 38.78125 C295.73246155 39.94628052 295.7305481 41.11131104 295.72857666 42.31164551 C295.72721489 44.776288 295.73091076 47.24093767 295.73925781 49.70556641 C295.74995715 53.48486393 295.73936195 57.26368607 295.7265625 61.04296875 C295.7278841 63.43489689 295.73044649 65.82682473 295.734375 68.21875 C295.73032654 69.35316528 295.72627808 70.48758057 295.72210693 71.65637207 C295.72841125 72.70756226 295.73471558 73.75875244 295.74121094 74.84179688 C295.74280212 75.76762573 295.74439331 76.69345459 295.74603271 77.64733887 C295.84572734 80.26930342 295.84572734 80.26930342 298 83 C300.39817214 83.46609797 300.39817214 83.46609797 303.22827148 83.40405273 C304.86523232 83.42307899 304.86523232 83.42307899 306.53526306 83.44248962 C307.71858719 83.43955399 308.90191132 83.43661835 310.12109375 83.43359375 C311.3319313 83.4388356 312.54276886 83.44407745 313.79029846 83.44947815 C316.35506421 83.45591157 318.91985941 83.45454441 321.48461914 83.44604492 C325.41801325 83.43754212 329.34995293 83.4662695 333.28320312 83.49804688 C335.7708329 83.49965901 338.25846525 83.49908112 340.74609375 83.49609375 C341.92739365 83.50732773 343.10869354 83.51856171 344.32579041 83.53013611 C345.96747948 83.51606468 345.96747948 83.51606468 347.64233398 83.50170898 C348.60670883 83.50154282 349.57108368 83.50137665 350.56468201 83.50120544 C353.10613184 83.20114084 353.10613184 83.20114084 354.81059265 81.28565979 C356.19819101 78.61914039 356.38010152 76.92471745 356.38818359 73.92773438 C356.39764008 72.91988892 356.40709656 71.91204346 356.4168396 70.87365723 C356.41076691 69.79128784 356.40469421 68.70891846 356.3984375 67.59375 C356.40274277 65.91847229 356.40274277 65.91847229 356.40713501 64.20935059 C356.40917566 61.84903455 356.40364576 59.48870161 356.39111328 57.12841797 C356.37506045 53.51361307 356.39096278 49.89992634 356.41015625 46.28515625 C356.40817382 43.99218503 356.40433015 41.69921451 356.3984375 39.40625 C356.40451019 38.32388062 356.41058289 37.24151123 356.4168396 36.12634277 C356.40738312 35.11849731 356.39792664 34.11065186 356.38818359 33.07226562 C356.38460342 31.74467224 356.38460342 31.74467224 356.38095093 30.39025879 C355.90617307 27.41128732 355.19160665 26.07509922 353 24 C350.50201565 23.40068378 350.50201565 23.40068378 347.64233398 23.49829102 C346.5478746 23.48891006 345.45341522 23.47952911 344.32579041 23.46986389 C343.14449051 23.48109787 341.96319061 23.49233185 340.74609375 23.50390625 C339.53429947 23.50245102 338.32250519 23.50099579 337.07398987 23.49949646 C334.51097205 23.50115745 331.94794447 23.5127409 329.38500977 23.53344727 C325.44960441 23.56241091 321.51554423 23.55405756 317.58007812 23.54101562 C315.09374342 23.54725231 312.60741298 23.55564269 310.12109375 23.56640625 C308.93776962 23.56347061 307.7544455 23.56053497 306.53526306 23.55751038 C305.44395584 23.57019455 304.35264862 23.58287872 303.22827148 23.59594727 C302.26469223 23.60135025 301.30111298 23.60675323 300.30833435 23.61231995 C299.16570885 23.80422157 299.16570885 23.80422157 298 24 Z M24 107 C23.68666608 109.36406489 23.68666608 109.36406489 23.7253418 112.13647461 C23.71580978 113.20776108 23.70627777 114.27904755 23.69645691 115.38279724 C23.69736832 116.54424759 23.69827972 117.70569794 23.69921875 118.90234375 C23.69493362 120.09098526 23.6906485 121.27962677 23.68623352 122.50428772 C23.68048181 125.02197634 23.67999611 127.53968158 23.68432617 130.05737305 C23.68748413 133.9180934 23.66404318 137.77804648 23.63867188 141.63867188 C23.63639885 144.0807282 23.6356954 146.52278659 23.63671875 148.96484375 C23.627509 150.12426987 23.61829926 151.28369598 23.60881042 152.47825623 C23.61503922 153.55269485 23.62126801 154.62713348 23.62768555 155.73413086 C23.62705612 156.68074081 23.6264267 157.62735077 23.6257782 158.60264587 C23.832265 161.0192096 23.832265 161.0192096 25.19514465 162.80386353 C27.64078214 164.42466721 29.32406544 164.38729894 32.25 164.40405273 C33.32121094 164.41673691 34.39242187 164.42942108 35.49609375 164.44248962 C36.65238281 164.43955399 37.80867188 164.43661835 39 164.43359375 C40.18722656 164.4388356 41.37445313 164.44407745 42.59765625 164.44947815 C45.10936704 164.45590558 47.6211079 164.4545521 50.1328125 164.44604492 C53.98491756 164.43753333 57.83554148 164.46629185 61.6875 164.49804688 C64.12499955 164.49965882 66.56250174 164.49908149 69 164.49609375 C70.73443359 164.51294472 70.73443359 164.51294472 72.50390625 164.53013611 C73.57511719 164.52075516 74.64632812 164.51137421 75.75 164.50170898 C76.69359375 164.50154282 77.6371875 164.50137665 78.609375 164.50120544 C81.10957567 164.19481436 81.10957567 164.19481436 82.80485535 162.29238892 C84.21472346 159.58814218 84.37442786 157.8616036 84.37231445 154.82006836 C84.37854324 153.78897446 84.38477203 152.75788055 84.39118958 151.69554138 C84.38197983 150.58816116 84.37277008 149.48078094 84.36328125 148.33984375 C84.36377975 147.19842422 84.36427826 146.0570047 84.36479187 144.8809967 C84.36245234 142.46939349 84.352731 140.0577878 84.33618164 137.64624023 C84.31256822 133.94818377 84.31562452 130.25084717 84.32226562 126.55273438 C84.3166896 124.21093319 84.3095802 121.86913504 84.30078125 119.52734375 C84.30169266 118.4179393 84.30260406 117.30853485 84.30354309 116.16551208 C84.28924507 114.62359947 84.28924507 114.62359947 84.2746582 113.05053711 C84.27005081 112.14548935 84.26544342 111.24044159 84.26069641 110.30796814 C84.14728005 107.72496494 84.14728005 107.72496494 82 105 C79.55309115 104.54743938 79.55309115 104.54743938 76.6640625 104.62768555 C74.992229 104.61834236 74.992229 104.61834236 73.28662109 104.60881042 C72.07828613 104.61802017 70.86995117 104.62722992 69.625 104.63671875 C67.77189209 104.63597099 67.77189209 104.63597099 65.88134766 104.63520813 C62.59398475 104.63815366 59.30705134 104.6552071 56.01977539 104.6774292 C54.0020388 104.68748983 51.98455288 104.68781265 49.96679688 104.68432617 C46.10274896 104.67793031 42.23902525 104.685816 38.375 104.69921875 C37.16666504 104.69830734 35.95833008 104.69739594 34.71337891 104.69645691 C33.04154541 104.71075493 33.04154541 104.71075493 31.3359375 104.7253418 C30.35157715 104.72994919 29.3672168 104.73455658 28.35302734 104.73930359 C25.81046601 104.7729065 25.81046601 104.7729065 24 107 Z M115 107 C114.69343668 109.41217423 114.69343668 109.41217423 114.74121094 112.24414062 C114.73490662 113.33867554 114.72860229 114.43321045 114.72210693 115.56091309 C114.7261554 116.74737427 114.73020386 117.93383545 114.734375 119.15625 C114.73246155 120.36945923 114.7305481 121.58266846 114.72857666 122.8326416 C114.72721366 125.40161343 114.73091808 127.97059212 114.73925781 130.53955078 C114.7499554 134.48355504 114.73936606 138.42710375 114.7265625 142.37109375 C114.72788407 144.86198018 114.73044642 147.35286632 114.734375 149.84375 C114.73032654 151.03021118 114.72627808 152.21667236 114.72210693 153.43908691 C114.72841125 154.53362183 114.73471558 155.62815674 114.74121094 156.75585938 C114.74280212 157.72245483 114.74439331 158.68905029 114.74603271 159.68493652 C114.77693601 162.19412365 114.77693601 162.19412365 117 164 C119.41217423 164.30656332 119.41217423 164.30656332 122.24414062 164.25878906 C123.88594299 164.26824554 123.88594299 164.26824554 125.56091309 164.27789307 C126.74737427 164.2738446 127.93383545 164.26979614 129.15625 164.265625 C130.36945923 164.26753845 131.58266846 164.2694519 132.8326416 164.27142334 C135.40161343 164.27278634 137.97059212 164.26908192 140.53955078 164.26074219 C144.48355504 164.2500446 148.42710375 164.26063394 152.37109375 164.2734375 C154.86198018 164.27211593 157.35286632 164.26955358 159.84375 164.265625 C161.62344177 164.27169769 161.62344177 164.27169769 163.43908691 164.27789307 C164.53362183 164.27158875 165.62815674 164.26528442 166.75585938 164.25878906 C167.72245483 164.25719788 168.68905029 164.25560669 169.68493652 164.25396729 C172.19412365 164.22306399 172.19412365 164.22306399 174 162 C174.30656332 159.58782577 174.30656332 159.58782577 174.25878906 156.75585938 C174.26509338 155.66132446 174.27139771 154.56678955 174.27789307 153.43908691 C174.2738446 152.25262573 174.26979614 151.06616455 174.265625 149.84375 C174.26753845 148.63054077 174.2694519 147.41733154 174.27142334 146.1673584 C174.27278634 143.59838657 174.26908192 141.02940788 174.26074219 138.46044922 C174.2500446 134.51644496 174.26063394 130.57289625 174.2734375 126.62890625 C174.27211593 124.13801982 174.26955358 121.64713368 174.265625 119.15625 C174.26967346 117.96978882 174.27372192 116.78332764 174.27789307 115.56091309 C174.27158875 114.46637817 174.26528442 113.37184326 174.25878906 112.24414062 C174.25719788 111.27754517 174.25560669 110.31094971 174.25396729 109.31506348 C174.22306399 106.80587635 174.22306399 106.80587635 172 105 C169.58782577 104.69343668 169.58782577 104.69343668 166.75585938 104.74121094 C165.66132446 104.73490662 164.56678955 104.72860229 163.43908691 104.72210693 C161.65939514 104.72817963 161.65939514 104.72817963 159.84375 104.734375 C158.63054077 104.73246155 157.41733154 104.7305481 156.1673584 104.72857666 C153.59838657 104.72721366 151.02940788 104.73091808 148.46044922 104.73925781 C144.51644496 104.7499554 140.57289625 104.73936606 136.62890625 104.7265625 C134.13801982 104.72788407 131.64713368 104.73044642 129.15625 104.734375 C127.96978882 104.73032654 126.78332764 104.72627808 125.56091309 104.72210693 C123.91911072 104.73156342 123.91911072 104.73156342 122.24414062 104.74121094 C120.79424744 104.74359772 120.79424744 104.74359772 119.31506348 104.74603271 C116.80587635 104.77693601 116.80587635 104.77693601 115 107 Z M24 188 C23.40107876 190.44994695 23.40107876 190.44994695 23.49829102 193.25 C23.48891006 194.32121094 23.47952911 195.39242187 23.46986389 196.49609375 C23.48109787 197.65238281 23.49233185 198.80867187 23.50390625 200 C23.50245102 201.18722656 23.50099579 202.37445313 23.49949646 203.59765625 C23.5011575 206.10939995 23.51274149 208.6211536 23.53344727 211.1328125 C23.56238591 214.98481329 23.55406262 218.83543748 23.54101562 222.6875 C23.54725317 225.12500671 23.55564422 227.56250906 23.56640625 230 C23.56347061 231.15628906 23.56053497 232.31257813 23.55751038 233.50390625 C23.57019455 234.57511719 23.58287872 235.64632812 23.59594727 236.75 C23.60135025 237.69359375 23.60675323 238.6371875 23.61231995 239.609375 C23.83445522 242.01977495 23.83445522 242.01977495 25.1971283 243.8028717 C27.64136389 245.42587327 29.32414758 245.38729941 32.25 245.40405273 C33.32121094 245.41673691 34.39242187 245.42942108 35.49609375 245.44248962 C36.65238281 245.43955399 37.80867188 245.43661835 39 245.43359375 C40.18722656 245.4388356 41.37445313 245.44407745 42.59765625 245.44947815 C45.10936704 245.45590558 47.6211079 245.4545521 50.1328125 245.44604492 C53.98491756 245.43753333 57.83554148 245.46629185 61.6875 245.49804688 C64.12499955 245.49965882 66.56250174 245.49908149 69 245.49609375 C70.73443359 245.51294472 70.73443359 245.51294472 72.50390625 245.53013611 C73.57511719 245.52075516 74.64632812 245.51137421 75.75 245.50170898 C76.69359375 245.50154282 77.6371875 245.50137665 78.609375 245.50120544 C81.10968678 245.19508828 81.10968678 245.19508828 82.8028717 243.29139709 C84.20956569 240.5988749 84.38592099 238.86571242 84.40405273 235.8359375 C84.41673691 234.80807129 84.42942108 233.78020508 84.44248962 232.72119141 C84.43955399 231.61694824 84.43661835 230.51270508 84.43359375 229.375 C84.4388356 228.23595215 84.44407745 227.0969043 84.44947815 225.92333984 C84.4558994 223.51595881 84.45456006 221.10854641 84.44604492 218.70117188 C84.43753176 215.01375628 84.46630256 211.32788766 84.49804688 207.640625 C84.49965885 205.3020838 84.49908143 202.96353985 84.49609375 200.625 C84.50732773 199.52075684 84.51856171 198.41651367 84.53013611 197.27880859 C84.52075516 196.25094238 84.51137421 195.22307617 84.50170898 194.1640625 C84.50154282 193.26123535 84.50137665 192.3584082 84.50120544 191.42822266 C83.82541594 188.15418126 82.66002465 186.98347369 80 185 C77.53845245 184.40669693 77.53845245 184.40669693 74.8359375 184.49829102 C73.80807129 184.48891006 72.78020508 184.47952911 71.72119141 184.46986389 C70.61694824 184.48109787 69.51270508 184.49233185 68.375 184.50390625 C67.23595215 184.50245102 66.0969043 184.50099579 64.92333984 184.49949646 C62.51592449 184.50115591 60.10849859 184.51272215 57.70117188 184.53344727 C54.01386503 184.56239117 50.32799646 184.55405825 46.640625 184.54101562 C44.30207634 184.54725328 41.96353222 184.55564442 39.625 184.56640625 C38.52075684 184.56347061 37.41651367 184.56053497 36.27880859 184.55751038 C34.73700928 184.57653664 34.73700928 184.57653664 33.1640625 184.59594727 C32.26123535 184.60135025 31.3584082 184.60675323 30.42822266 184.61231995 C27.43309229 185.09051016 26.08707086 185.79777912 24 188 Z M115 188 C114.40068378 190.49798435 114.40068378 190.49798435 114.49829102 193.35766602 C114.48891006 194.4521254 114.47952911 195.54658478 114.46986389 196.67420959 C114.48109787 197.85550949 114.49233185 199.03680939 114.50390625 200.25390625 C114.50245102 201.46570053 114.50099579 202.67749481 114.49949646 203.92601013 C114.50115745 206.48902795 114.5127409 209.05205553 114.53344727 211.61499023 C114.56241091 215.55039559 114.55405756 219.48445577 114.54101562 223.41992188 C114.54725231 225.90625658 114.55564269 228.39258702 114.56640625 230.87890625 C114.56347061 232.06223038 114.56053497 233.2455545 114.55751038 234.46473694 C114.57019455 235.55604416 114.58287872 236.64735138 114.59594727 237.77172852 C114.60135025 238.73530777 114.60675323 239.69888702 114.61231995 240.69166565 C114.74025436 241.45341599 114.86818878 242.21516632 115 243 C118.30581121 245.20387414 119.31452055 245.25218307 123.15820312 245.25878906 C124.20939331 245.26509338 125.2605835 245.27139771 126.34362793 245.27789307 C127.47804321 245.2738446 128.6124585 245.26979614 129.78125 245.265625 C130.94628052 245.26753845 132.11131104 245.2694519 133.31164551 245.27142334 C135.776288 245.27278511 138.24093767 245.26908924 140.70556641 245.26074219 C144.48486393 245.25004285 148.26368607 245.26063805 152.04296875 245.2734375 C154.43489689 245.2721159 156.82682473 245.26955351 159.21875 245.265625 C160.92037292 245.27169769 160.92037292 245.27169769 162.65637207 245.27789307 C164.23315735 245.26843658 164.23315735 245.26843658 165.84179688 245.25878906 C166.76762573 245.25719788 167.69345459 245.25560669 168.64733887 245.25396729 C171.26930342 245.15427266 171.26930342 245.15427266 174 243 C174.45922771 240.60142798 174.45922771 240.60142798 174.38818359 237.77172852 C174.39764008 236.6804213 174.40709656 235.58911407 174.4168396 234.46473694 C174.41076691 233.28141281 174.40469421 232.09808868 174.3984375 230.87890625 C174.40274277 229.06264992 174.40274277 229.06264992 174.40713501 227.20970154 C174.40917967 224.64492323 174.4036219 222.08012948 174.39111328 219.51538086 C174.37508016 215.58216545 174.39094235 211.64997993 174.41015625 207.71679688 C174.40817362 205.22916439 174.40432953 202.74153255 174.3984375 200.25390625 C174.40451019 199.07260635 174.41058289 197.89130646 174.4168396 196.67420959 C174.40738312 195.57975021 174.39792664 194.48529083 174.38818359 193.35766602 C174.38460342 191.91110374 174.38460342 191.91110374 174.38095093 190.43531799 C174.17201142 187.9832302 174.17201142 187.9832302 172.79139709 186.18940735 C170.4009237 184.6022402 168.81118297 184.6193633 165.94946289 184.61181641 C164.92152115 184.60235992 163.89357941 184.59290344 162.83448792 184.5831604 C161.17038124 184.59226944 161.17038124 184.59226944 159.47265625 184.6015625 C158.33219345 184.59869232 157.19173065 184.59582214 156.01670837 184.59286499 C153.60333765 184.59082227 151.18995044 184.59636657 148.77661133 184.60888672 C145.08051512 184.62492184 141.38551497 184.60905175 137.68945312 184.58984375 C135.34635175 184.59182643 133.00325106 184.59567063 130.66015625 184.6015625 C129.55277603 184.59548981 128.44539581 184.58941711 127.30445862 184.5831604 C125.75781776 184.59734512 125.75781776 184.59734512 124.17993164 184.61181641 C122.82116661 184.61539658 122.82116661 184.61539658 121.43495178 184.61904907 C118.42834568 185.08943596 117.08908802 185.78492453 115 188 Z " fill="#59A1A1" transform="translate(36,132)"/>
<path d="M0 0 C125.07 0 250.14 0 379 0 C379 6.93 379 13.86 379 21 C253.93 21 128.86 21 0 21 C0 14.07 0 7.14 0 0 Z " fill="#59A0A2" transform="translate(36,102)"/>
<path d="M0 0 C0.73347656 0.28875 1.46695313 0.5775 2.22265625 0.875 C16.30189739 7.14488075 25.09436949 19.22019549 31 33 C36.0791402 47.01842695 34.15743711 62.37699892 28.54296875 75.89453125 C20.97598882 91.12427566 9.23670326 99.61731638 -6.421875 105.203125 C-21.59340231 109.89250617 -37.29973614 107.04181098 -51.08203125 99.78515625 C-62.93888632 92.53136406 -71.8641511 81.25648409 -76 68 C-76.22429687 67.30777344 -76.44859375 66.61554688 -76.6796875 65.90234375 C-80.46600455 52.0278258 -78.32011685 36.18018742 -71.3125 23.6875 C-61.97017326 9.59205965 -50.06576174 0.66222984 -33.64453125 -3.61328125 C-22.04236516 -5.30990524 -10.87237696 -4.44148165 0 0 Z M-40 12 C-40.27765416 14.32817205 -40.27765416 14.32817205 -40.1953125 17.0078125 C-40.18886719 17.99394531 -40.18242187 18.98007812 -40.17578125 19.99609375 C-40.15902344 21.02863281 -40.14226562 22.06117188 -40.125 23.125 C-40.11597656 24.16527344 -40.10695313 25.20554687 -40.09765625 26.27734375 C-40.07403747 28.85179092 -40.04110149 31.42578212 -40 34 C-40.65597168 33.98952637 -41.31194336 33.97905273 -41.98779297 33.96826172 C-44.95015658 33.92677497 -47.91245916 33.90069738 -50.875 33.875 C-52.42380859 33.84986328 -52.42380859 33.84986328 -54.00390625 33.82421875 C-54.99003906 33.81777344 -55.97617187 33.81132812 -56.9921875 33.8046875 C-57.90339355 33.79421387 -58.81459961 33.78374023 -59.75341797 33.77294922 C-62.20290436 33.78129007 -62.20290436 33.78129007 -64 36 C-64.31251372 39.17423524 -64.31251372 39.17423524 -64.265625 42.90625 C-64.26753845 43.58675415 -64.2694519 44.2672583 -64.27142334 44.96838379 C-64.27278463 46.40747446 -64.26909205 47.84657744 -64.26074219 49.28564453 C-64.25004128 51.49149087 -64.26063872 53.69652281 -64.2734375 55.90234375 C-64.27211589 57.29948097 -64.26955348 58.69661768 -64.265625 60.09375 C-64.26336914 61.36927734 -64.26111328 62.64480469 -64.25878906 63.95898438 C-64.31971066 67.1100243 -64.31971066 67.1100243 -62 69 C-59.67182795 69.27765416 -59.67182795 69.27765416 -56.9921875 69.1953125 C-55.51298828 69.18564453 -55.51298828 69.18564453 -54.00390625 69.17578125 C-52.97136719 69.15902344 -51.93882812 69.14226562 -50.875 69.125 C-49.83472656 69.11597656 -48.79445313 69.10695313 -47.72265625 69.09765625 C-45.14820908 69.07403747 -42.57421788 69.04110149 -40 69 C-40.01047363 69.65597168 -40.02094727 70.31194336 -40.03173828 70.98779297 C-40.07322503 73.95015658 -40.09930262 76.91245916 -40.125 79.875 C-40.14175781 80.90753906 -40.15851563 81.94007813 -40.17578125 83.00390625 C-40.18222656 83.99003906 -40.18867188 84.97617187 -40.1953125 85.9921875 C-40.20578613 86.90339355 -40.21625977 87.81459961 -40.22705078 88.75341797 C-40.21870993 91.20290436 -40.21870993 91.20290436 -38 93 C-33.60065243 93.42250211 -29.18660956 93.37159402 -24.76928711 93.37060547 C-22.57391721 93.37497726 -20.38056059 93.4112845 -18.18554688 93.44921875 C-16.79167355 93.45508727 -15.39779066 93.45905643 -14.00390625 93.4609375 C-12.73361572 93.46915527 -11.4633252 93.47737305 -10.15454102 93.48583984 C-6.96928877 93.2906818 -6.96928877 93.2906818 -5.08056641 91.26904297 C-3.85752542 88.7008227 -3.65253843 87.06800189 -3.70703125 84.234375 C-3.71669922 83.34492188 -3.72636719 82.45546875 -3.73632812 81.5390625 C-3.76146484 80.61867188 -3.78660156 79.69828125 -3.8125 78.75 C-3.82603516 77.81414062 -3.83957031 76.87828125 -3.85351562 75.9140625 C-3.88880046 73.60878673 -3.93809719 71.3046894 -4 69 C-3.37432129 69.01047363 -2.74864258 69.02094727 -2.10400391 69.03173828 C0.7222901 69.07323191 3.54852011 69.09930473 6.375 69.125 C7.85226562 69.15013672 7.85226562 69.15013672 9.359375 69.17578125 C10.30039062 69.18222656 11.24140625 69.18867188 12.2109375 69.1953125 C13.08024902 69.20578613 13.94956055 69.21625977 14.84521484 69.22705078 C17.21345939 69.20595109 17.21345939 69.20595109 19 67 C19.31251372 63.82576476 19.31251372 63.82576476 19.265625 60.09375 C19.26753845 59.41324585 19.2694519 58.7327417 19.27142334 58.03161621 C19.27278463 56.59252554 19.26909205 55.15342256 19.26074219 53.71435547 C19.25004128 51.50850913 19.26063872 49.30347719 19.2734375 47.09765625 C19.27211589 45.70051903 19.26955348 44.30338232 19.265625 42.90625 C19.26224121 40.99295898 19.26224121 40.99295898 19.25878906 39.04101562 C19.31971066 35.8899757 19.31971066 35.8899757 17 34 C14.76964703 33.72258755 14.76964703 33.72258755 12.2109375 33.8046875 C10.79941406 33.81435547 10.79941406 33.81435547 9.359375 33.82421875 C8.37453125 33.84097656 7.3896875 33.85773438 6.375 33.875 C5.38242187 33.88402344 4.38984375 33.89304687 3.3671875 33.90234375 C0.91121866 33.92595884 -1.54427168 33.95889201 -4 34 C-3.97643433 33.12263184 -3.97643433 33.12263184 -3.95239258 32.22753906 C-3.88989733 29.56845836 -3.85096431 26.90953236 -3.8125 24.25 C-3.78736328 23.32960938 -3.76222656 22.40921875 -3.73632812 21.4609375 C-3.72182617 20.12675781 -3.72182617 20.12675781 -3.70703125 18.765625 C-3.68346558 17.54020996 -3.68346558 17.54020996 -3.65942383 16.29003906 C-4.10579076 13.28866142 -4.7362961 12.04142212 -7 10 C-10.25669437 9.41305966 -10.25669437 9.41305966 -14.00390625 9.5390625 C-14.68299545 9.53997894 -15.36208466 9.54089539 -16.06175232 9.5418396 C-17.49493413 9.54787362 -18.92810345 9.56361412 -20.36108398 9.58837891 C-22.55825065 9.62492931 -24.75373272 9.62939801 -26.95117188 9.62890625 C-34.08002366 9.11034331 -34.08002366 9.11034331 -40 12 Z " fill="#58A1A2" transform="translate(442,355)"/>
<path d="M0 0 C4.03578473 1.56223925 7.97226323 3.31510197 11.9140625 5.09765625 C16.10546677 6.91079181 19.38898121 7.13454568 23.9375 7.125 C25.77634766 7.12886719 25.77634766 7.12886719 27.65234375 7.1328125 C30.37206807 7.02491212 32.41757387 6.70826033 35 6 C42.67134593 5.31103629 49.34285168 6.39862672 56.09228516 10.16870117 C58 12 58 12 58.51757812 14.828125 C58.52208984 15.95734375 58.52660156 17.0865625 58.53125 18.25 C58.53898437 20.12365234 58.53898437 20.12365234 58.546875 22.03515625 C58.53140625 23.34355469 58.5159375 24.65195312 58.5 26 C58.52320313 27.91619141 58.52320313 27.91619141 58.546875 29.87109375 C58.49766206 41.89135519 55.87774213 51.67012386 47.5625 60.625 C38.51059589 69.01456967 29.80742115 72.41123791 17.515625 72.2734375 C6.64159736 71.42767979 -1.69740801 66.74705876 -9.00390625 58.828125 C-17.27336102 48.81500649 -18.1633628 38.72509132 -18.0625 26.125 C-18.05798828 25.05507813 -18.05347656 23.98515625 -18.04882812 22.8828125 C-18.03709749 20.25515014 -18.02068228 17.62760462 -18 15 C-17.07441284 14.70452271 -17.07441284 14.70452271 -16.13012695 14.40307617 C-15.32019287 14.13986572 -14.51025879 13.87665527 -13.67578125 13.60546875 C-12.87309814 13.34660889 -12.07041504 13.08774902 -11.2434082 12.82104492 C-6.31017053 11.01557335 -4.00100411 8.30471122 -1.6875 3.75 C-1.11293953 2.50549748 -0.54621189 1.25720278 0 0 Z " fill="#58A1A2" transform="translate(281,286)"/>
<path d="M0 0 C7.75385941 6.52698292 13.67519742 14.10345453 15.625 24.25 C15.69188591 26.16561254 15.71031719 28.08335592 15.6875 30 C15.67847656 30.98484375 15.66945313 31.9696875 15.66015625 32.984375 C15.64855469 33.73203125 15.63695312 34.4796875 15.625 35.25 C10.83672435 34.32917776 6.78684572 31.85415977 2.5 29.625 C-1.80617479 27.5655251 -5.11341114 27.11191871 -9.875 27.125 C-10.8134375 27.12242187 -11.751875 27.11984375 -12.71875 27.1171875 C-15.276254 27.15864273 -15.276254 27.15864273 -17.3046875 27.734375 C-25.60445095 29.8014859 -33.89607873 28.9099223 -41.265625 24.6953125 C-43.18866787 23.37767202 -44.89643973 21.99676829 -46.625 20.4375 C-49.23393675 17.95232887 -49.23393675 17.95232887 -52.75 17.9375 C-53.61625 18.040625 -54.4825 18.14375 -55.375 18.25 C-55.54515625 18.90226562 -55.7153125 19.55453125 -55.890625 20.2265625 C-57.38167301 25.60385265 -58.89023022 29.8659348 -62.375 34.25 C-65.13952033 35.63226016 -67.4211363 35.34525387 -70.5 35.3125 C-71.59570312 35.30347656 -72.69140625 35.29445313 -73.8203125 35.28515625 C-74.66335938 35.27355469 -75.50640625 35.26195312 -76.375 35.25 C-75.97465174 22.47889061 -73.4845147 12.59217421 -64.375 3.25 C-47.78243967 -10.20025244 -17.84648775 -12.27784684 0 0 Z " fill="#58A1A2" transform="translate(331.375,256.75)"/>
<path d="M0 0 C0.07992187 0.90105469 0.15984375 1.80210937 0.2421875 2.73046875 C1.12854586 6.55460248 2.32701029 7.64612304 5.125 10.3125 C7.98683056 13.62540718 9.2806885 15.74200082 8.98828125 20.07421875 C8.82291621 21.55163351 8.63886716 23.02706034 8.4375 24.5 C7.6423333 30.43554326 7.6423333 30.43554326 9.58984375 35.96484375 C11.93212902 38.49931653 14.39259836 40.74103492 17 43 C18.52326119 44.64543402 20.0236391 46.31235777 21.5 48 C23.82942261 50.59599386 26.16727148 53.1814689 28.53125 55.74609375 C29.3459375 56.63425781 30.160625 57.52242188 31 58.4375 C31.7425 59.24058594 32.485 60.04367187 33.25 60.87109375 C35 63 35 63 36 66 C10.26 66 -15.48 66 -42 66 C-42 24.88274336 -42 24.88274336 -28.875 11.3125 C-23.99093238 6.54254611 -23.99093238 6.54254611 -20 6 C-19.64551273 9.072223 -19.47866261 11.94113265 -20 15 C-22.75 17.1875 -22.75 17.1875 -26 19 C-29.62268077 23.30805281 -31.44245978 27.3744399 -31 33 C-29.40352229 38.16507493 -26.81877244 42.38110193 -22 45 C-16.94835736 46.33489002 -12.47875282 46.60480496 -7.625 44.5 C-3.64849398 42.14146506 -1.38875628 39.41798091 0 35 C0.91473303 29.61641499 0.3304475 25.12601056 -2.64453125 20.5078125 C-5.03238973 17.85157799 -7.80020858 16.53836126 -11 15 C-11.02694851 13.04174127 -11.04637218 11.08337774 -11.0625 9.125 C-11.07410156 8.03445313 -11.08570313 6.94390625 -11.09765625 5.8203125 C-11 3 -11 3 -10 1 C-6.52674819 -0.1577506 -3.63932552 -0.06866652 0 0 Z " fill="#58A1A2" transform="translate(254,382)"/>
<path d="M0 0 C5.94 0 11.88 0 18 0 C18.33 7.26 18.66 14.52 19 22 C21.34938888 23.17469444 22.95073205 23.20034889 25.5703125 23.31640625 C26.46621094 23.35830078 27.36210937 23.40019531 28.28515625 23.44335938 C29.22230469 23.48267578 30.15945313 23.52199219 31.125 23.5625 C32.06988281 23.60568359 33.01476562 23.64886719 33.98828125 23.69335938 C36.32534172 23.7995894 38.6626513 23.90031271 41 24 C41 29.61 41 35.22 41 41 C38.86917969 41.09087891 38.86917969 41.09087891 36.6953125 41.18359375 C34.83853091 41.26799291 32.98176064 41.35264123 31.125 41.4375 C30.18785156 41.47681641 29.25070312 41.51613281 28.28515625 41.55664062 C27.38925781 41.59853516 26.49335938 41.64042969 25.5703125 41.68359375 C24.74289551 41.72025146 23.91547852 41.75690918 23.06298828 41.79467773 C20.93820571 41.88238327 20.93820571 41.88238327 19 43 C18.67 50.26 18.34 57.52 18 65 C12.06 65 6.12 65 0 65 C-0.03738281 63.50726563 -0.07476562 62.01453125 -0.11328125 60.4765625 C-0.17892465 58.52601584 -0.24537254 56.57549615 -0.3125 54.625 C-0.33505859 53.64015625 -0.35761719 52.6553125 -0.38085938 51.640625 C-0.4340332 50.22910156 -0.4340332 50.22910156 -0.48828125 48.7890625 C-0.51446533 47.91975098 -0.54064941 47.05043945 -0.56762695 46.15478516 C-0.81345218 43.61399973 -0.81345218 43.61399973 -4 42 C-6.22131423 41.6349209 -6.22131423 41.6349209 -8.66796875 41.5859375 C-9.56064453 41.54726563 -10.45332031 41.50859375 -11.37304688 41.46875 C-12.30181641 41.4378125 -13.23058594 41.406875 -14.1875 41.375 C-15.12787109 41.33632813 -16.06824219 41.29765625 -17.03710938 41.2578125 C-19.35775066 41.16357326 -21.67884841 41.08069877 -24 41 C-24 35.39 -24 29.78 -24 24 C-22.50726563 23.95101563 -21.01453125 23.90203125 -19.4765625 23.8515625 C-17.52602237 23.77654173 -15.57550247 23.7009936 -13.625 23.625 C-12.64015625 23.5940625 -11.6553125 23.563125 -10.640625 23.53125 C-9.22910156 23.47324219 -9.22910156 23.47324219 -7.7890625 23.4140625 C-6.48509521 23.36693115 -6.48509521 23.36693115 -5.15478516 23.31884766 C-2.79038206 23.18770567 -2.79038206 23.18770567 -1 21 C-0.62995706 18.77341846 -0.62995706 18.77341846 -0.5859375 16.2109375 C-0.54726563 15.26992188 -0.50859375 14.32890625 -0.46875 13.359375 C-0.4378125 12.37453125 -0.406875 11.3896875 -0.375 10.375 C-0.33632813 9.38242187 -0.29765625 8.38984375 -0.2578125 7.3671875 C-0.16337339 4.91177058 -0.08059119 2.45591043 0 0 Z " fill="#58A0A1" transform="translate(411,374)"/>
<path d="M0 0 C13.86 0 27.72 0 42 0 C42 13.53 42 27.06 42 41 C28.14 41 14.28 41 0 41 C0 27.47 0 13.94 0 0 Z " fill="#59A0A1" transform="translate(250,165)"/>
<path d="M0 0 C13.53 0 27.06 0 41 0 C41 13.53 41 27.06 41 41 C27.47 41 13.94 41 0 41 C0 27.47 0 13.94 0 0 Z " fill="#58A1A1" transform="translate(160,246)"/>
<path d="M0 0 C3.86986958 -0.07442057 7.2735915 -0.04702186 11 1 C10.86722656 1.65226562 10.73445313 2.30453125 10.59765625 2.9765625 C10.42105469 3.85054688 10.24445313 4.72453125 10.0625 5.625 C9.88847656 6.48351562 9.71445312 7.34203125 9.53515625 8.2265625 C5.51630172 29.05420274 9.57605927 45.04013676 20 63 C20.66 64.32 21.32 65.64 22 67 C2.86 67 -16.28 67 -36 67 C-34.04248525 63.0849705 -31.7724125 60.37664017 -28.8125 57.25 C-27.81182079 56.17641393 -26.81182021 55.10219492 -25.8125 54.02734375 C-25.3278125 53.50769043 -24.843125 52.98803711 -24.34375 52.45263672 C-22.06227133 49.98628532 -19.8548664 47.46281311 -17.703125 44.8828125 C-16 43 -16 43 -13.796875 41.1796875 C-10.73145369 38.44653214 -8.22757173 36.17434902 -7.78076172 31.90527344 C-7.77596147 28.60407122 -7.95324214 25.32768909 -8.15454102 22.03344727 C-8.37032341 16.43910929 -7.81512223 13.5296116 -4 9.125 C-3.2575 8.42632812 -2.515 7.72765625 -1.75 7.0078125 C0.26316546 5.09417505 0.26316546 5.09417505 0.25 2.2421875 C0.1675 1.50226563 0.085 0.76234375 0 0 Z " fill="#58A1A2" transform="translate(348,382)"/>
<path d="M0 0 C13.86 0 27.72 0 42 0 C42 13.86 42 27.72 42 42 C28.14 42 14.28 42 0 42 C0 28.14 0 14.28 0 0 Z M21.9140625 17.0234375 C20.26529615 18.67220385 18.6257336 20.32854264 17 22 C15.88625 21.2884375 15.88625 21.2884375 14.75 20.5625 C11.5438329 18.69285272 11.5438329 18.69285272 8 18 C6.06345052 19.01970318 6.06345052 19.01970318 5 21 C4.8337889 23.99179973 5.62702768 25.54035787 7.49609375 27.84375 C11.50203167 32.28355721 11.50203167 32.28355721 17 34 C18.86159815 32.97430096 18.86159815 32.97430096 20.5625 31.25 C21.24570313 30.60933594 21.92890625 29.96867187 22.6328125 29.30859375 C23.41398437 28.54675781 24.19515625 27.78492188 25 27 C25.97643952 26.07408905 26.95300856 25.14831465 27.9296875 24.22265625 C34.16615674 19.0620061 34.16615674 19.0620061 37 12 C35.20808968 9.70784955 35.20808968 9.70784955 33 8 C29.5042515 8 24.32921479 14.68064932 21.9140625 17.0234375 Z " fill="#58A1A2" transform="translate(69,326)"/>
<path d="M0 0 C13.86 0 27.72 0 42 0 C42 13.53 42 27.06 42 41 C28.14 41 14.28 41 0 41 C0 27.47 0 13.94 0 0 Z M28.35253906 9.19335938 C27.82885742 9.73798828 27.30517578 10.28261719 26.765625 10.84375 C26.19199219 11.43027344 25.61835938 12.01679688 25.02734375 12.62109375 C24.44082031 13.24113281 23.85429687 13.86117187 23.25 14.5 C22.64800781 15.12003906 22.04601562 15.74007812 21.42578125 16.37890625 C19.94136366 17.91044821 18.46945655 19.45409774 17 21 C14.33333333 19.66666667 11.66666667 18.33333333 9 17 C7.68 17.99 6.36 18.98 5 20 C5.50866097 24.26377576 6.74539623 26.33650972 9.75 29.375 C10.42546875 30.08398438 11.1009375 30.79296875 11.796875 31.5234375 C13.8864149 33.25012533 13.8864149 33.25012533 16.35888672 32.83569336 C21.43254801 31.23030026 24.71414929 26.89720037 28.375 23.1875 C29.21933594 22.36701172 30.06367188 21.54652344 30.93359375 20.70117188 C31.72636719 19.90646484 32.51914062 19.11175781 33.3359375 18.29296875 C34.06345215 17.5661792 34.7909668 16.83938965 35.54052734 16.09057617 C37.23383394 14.13037251 37.23383394 14.13037251 36.85400391 11.85668945 C36.04386107 9.8125768 36.04386107 9.8125768 34 8 C30.20085957 7.60891383 30.20085957 7.60891383 28.35253906 9.19335938 Z " fill="#59A0A1" transform="translate(341,165)"/>
<path d="M0 0 C13.86 0 27.72 0 42 0 C42 13.53 42 27.06 42 41 C28.14 41 14.28 41 0 41 C0 27.47 0 13.94 0 0 Z M26.5703125 10.74609375 C25.40358066 11.9592297 24.2555468 13.19057339 23.125 14.4375 C22.23554687 15.37432617 22.23554687 15.37432617 21.328125 16.33007812 C19.86911581 17.87145074 18.43232151 19.4337968 17 21 C14.33333333 19.66666667 11.66666667 18.33333333 9 17 C7.68 17.99 6.36 18.98 5 20 C5.50866097 24.26377576 6.74539623 26.33650972 9.75 29.375 C10.42546875 30.08398438 11.1009375 30.79296875 11.796875 31.5234375 C13.88646483 33.25054832 13.88646483 33.25054832 16.35888672 32.83349609 C21.42556349 31.23452822 24.7094012 26.94437116 28.375 23.25 C29.21933594 22.43789062 30.06367187 21.62578125 30.93359375 20.7890625 C31.72636719 19.99757812 32.51914063 19.20609375 33.3359375 18.390625 C34.06345215 17.66907227 34.7909668 16.94751953 35.54052734 16.20410156 C37.29933712 14.05112102 37.29933712 14.05112102 36.72900391 11.22558594 C36.48843262 10.49114258 36.24786133 9.75669922 36 9 C31.71262769 7.49485866 29.79733293 7.71835147 26.5703125 10.74609375 Z " fill="#59A1A2" transform="translate(69,165)"/>
<path d="M0 0 C13.86 0 27.72 0 42 0 C42 13.53 42 27.06 42 41 C28.14 41 14.28 41 0 41 C0 27.47 0 13.94 0 0 Z M23.1875 14.5 C22.59001953 15.12003906 21.99253906 15.74007813 21.37695312 16.37890625 C19.90642559 17.90825488 18.4516427 19.45271466 17 21 C14.33333333 19.66666667 11.66666667 18.33333333 9 17 C7.68 17.99 6.36 18.98 5 20 C5.14854578 24.90201083 7.7665958 27.24034086 11.015625 30.546875 C13.46903223 32.34346455 14.96051648 32.81034513 18 33 C20.45585625 31.47082478 20.45585625 31.47082478 22.6796875 29.1171875 C23.5253125 28.27929688 24.3709375 27.44140625 25.2421875 26.578125 C26.11101562 25.68609375 26.97984375 24.7940625 27.875 23.875 C28.76703125 23.00617188 29.6590625 22.13734375 30.578125 21.2421875 C31.41601562 20.3965625 32.25390625 19.5509375 33.1171875 18.6796875 C33.88659668 17.90351074 34.65600586 17.12733398 35.44873047 16.32763672 C37.28615936 14.08543768 37.28615936 14.08543768 36.80517578 11.27001953 C36.20506106 9.06171277 36.20506106 9.06171277 35 8 C29.33960455 6.75823135 26.71779923 10.71388199 23.1875 14.5 Z " fill="#59A1A1" transform="translate(69,246)"/>
<path d="M0 0 C13.53 0 27.06 0 41 0 C41 13.86 41 27.72 41 42 C27.47 42 13.94 42 0 42 C0 28.14 0 14.28 0 0 Z M19 18.9375 C17.99739287 19.95577287 16.99636187 20.97561545 16 22 C15.278125 21.319375 14.55625 20.63875 13.8125 19.9375 C11.18957575 17.70066145 11.18957575 17.70066145 8.25 18.1875 C6.06023367 18.79813062 6.06023367 18.79813062 5 20 C4.58657843 23.19857739 4.68146714 24.56395017 6.609375 27.203125 C7.66898438 28.21632813 7.66898438 28.21632813 8.75 29.25 C9.44609375 29.93578125 10.1421875 30.6215625 10.859375 31.328125 C13.04602911 33.03594974 14.23239779 33.87319751 17 34 C18.89528213 32.93937392 18.89528213 32.93937392 20.625 31.1875 C21.30949219 30.54296875 21.99398437 29.8984375 22.69921875 29.234375 C23.45847656 28.49703125 24.21773437 27.7596875 25 27 C25.89332031 26.18015625 26.78664062 25.3603125 27.70703125 24.515625 C28.60808594 23.66484375 29.50914062 22.8140625 30.4375 21.9375 C31.28183594 21.14214844 32.12617188 20.34679687 32.99609375 19.52734375 C35.31982024 16.59663997 35.82469239 14.70724031 36 11 C34.81104764 9.05967596 34.81104764 9.05967596 33 8 C27.91417683 8 22.44006344 15.5044428 19 18.9375 Z " fill="#58A1A2" transform="translate(160,326)"/>
<path d="M0 0 C13.53 0 27.06 0 41 0 C41 13.53 41 27.06 41 41 C27.47 41 13.94 41 0 41 C0 27.47 0 13.94 0 0 Z M28.35253906 9.19335938 C27.82885742 9.73798828 27.30517578 10.28261719 26.765625 10.84375 C26.19199219 11.43027344 25.61835938 12.01679688 25.02734375 12.62109375 C24.44082031 13.24113281 23.85429687 13.86117187 23.25 14.5 C22.64800781 15.12003906 22.04601562 15.74007812 21.42578125 16.37890625 C19.94136366 17.91044821 18.46945655 19.45409774 17 21 C14.33333333 19.66666667 11.66666667 18.33333333 9 17 C7.68 17.99 6.36 18.98 5 20 C5.50866097 24.26377576 6.74539623 26.33650972 9.75 29.375 C10.42546875 30.08398438 11.1009375 30.79296875 11.796875 31.5234375 C13.88896398 33.25442719 13.88896398 33.25442719 16.37475586 32.81982422 C21.24274451 31.29962466 24.30466301 27.30782293 27.8125 23.75 C28.60076172 22.98558594 29.38902344 22.22117188 30.20117188 21.43359375 C30.94560547 20.68722656 31.69003906 19.94085938 32.45703125 19.171875 C33.13741455 18.4922168 33.81779785 17.81255859 34.51879883 17.11230469 C36.34285809 14.51105848 36.45637885 13.11456858 36 10 C35.34 9.34 34.68 8.68 34 8 C30.20085957 7.60891383 30.20085957 7.60891383 28.35253906 9.19335938 Z " fill="#59A0A1" transform="translate(160,165)"/>
<path d="M0 0 C0.94746094 0.32484375 0.94746094 0.32484375 1.9140625 0.65625 C13.58369933 4.28829835 24.46628936 3.95441508 36 0 C35.37286167 6.1340653 33.63391011 11.63231904 31.65625 17.45703125 C31.32709595 18.44120529 30.99794189 19.42537933 30.65881348 20.43937683 C29.96560499 22.50861895 29.26954676 24.57690833 28.57080078 26.64428711 C27.49829764 29.81753683 26.43393203 32.99342345 25.37109375 36.16992188 C24.69577925 38.18244835 24.02001383 40.19482358 23.34375 42.20703125 C23.02394165 43.15906937 22.7041333 44.11110748 22.37463379 45.09199524 C22.07762573 45.97018417 21.78061768 46.84837311 21.47460938 47.75317383 C21.2133728 48.52703934 20.95213623 49.30090485 20.6829834 50.09822083 C20 52 20 52 19 54 C18.34 54 17.68 54 17 54 C14.73563194 47.11451959 12.47575782 40.22757613 10.21899414 33.33959961 C9.45082204 30.99681253 8.68162378 28.65436165 7.91137695 26.31225586 C6.80409789 22.94472824 5.70052093 19.57600677 4.59765625 16.20703125 C4.25283707 15.16102249 3.90801788 14.11501373 3.55274963 13.03730774 C3.23249313 12.05666855 2.91223663 11.07602936 2.58227539 10.06567383 C2.30025772 9.20629715 2.01824005 8.34692047 1.72767639 7.46150208 C0.99701731 4.98991049 0.46546636 2.5337257 0 0 Z " fill="#58A1A2" transform="translate(283,383)"/>
<path d="M0 0 C6.6 0 13.2 0 20 0 C20.02290595 5.9631823 20.04283396 11.92621311 20.05493164 17.8894043 C20.05997278 19.91968298 20.06680557 21.94995802 20.07543945 23.98022461 C20.08751467 26.89177347 20.09323034 29.8032745 20.09765625 32.71484375 C20.10281754 33.6283812 20.10797882 34.54191864 20.11329651 35.48313904 C20.11349168 37.65575427 20.06211805 39.82827296 20 42 C19.67 42.33 19.34 42.66 19 43 C12.73 43 6.46 43 0 43 C0 28.81 0 14.62 0 0 Z " fill="#5A9FA0" transform="translate(216,50)"/>
<path d="M0 0 C6.27 0 12.54 0 19 0 C19 14.19 19 28.38 19 43 C12.73 43 6.46 43 0 43 C0 28.81 0 14.62 0 0 Z " fill="#58A0A1" transform="translate(363,50)"/>
<path d="M0 0 C6.27 0 12.54 0 19 0 C19 14.19 19 28.38 19 43 C12.73 43 6.46 43 0 43 C0 28.81 0 14.62 0 0 Z " fill="#59A0A2" transform="translate(290,50)"/>
<path d="M0 0 C6.27 0 12.54 0 19 0 C19 14.19 19 28.38 19 43 C12.73 43 6.46 43 0 43 C0 28.81 0 14.62 0 0 Z " fill="#59A1A1" transform="translate(143,50)"/>
<path d="M0 0 C6.27 0 12.54 0 19 0 C19 14.19 19 28.38 19 43 C12.73 43 6.46 43 0 43 C0 28.81 0 14.62 0 0 Z " fill="#58A0A1" transform="translate(70,50)"/>
<path d="M0 0 C11.88 0 23.76 0 36 0 C36 7.26 36 14.52 36 22 C24.12 22 12.24 22 0 22 C0 14.74 0 7.48 0 0 Z " fill="#59A0A1" transform="translate(318,71)"/>
<path d="M0 0 C11.88 0 23.76 0 36 0 C36 7.26 36 14.52 36 22 C24.12 22 12.24 22 0 22 C0 14.74 0 7.48 0 0 Z " fill="#59A0A1" transform="translate(171,71)"/>
<path d="M0 0 C11.88 0 23.76 0 36 0 C36 7.26 36 14.52 36 22 C24.12 22 12.24 22 0 22 C0 14.74 0 7.48 0 0 Z " fill="#59A0A1" transform="translate(98,71)"/>
<path d="M0 0 C11.55 0 23.1 0 35 0 C35 7.26 35 14.52 35 22 C23.45 22 11.9 22 0 22 C0 14.74 0 7.48 0 0 Z " fill="#58A0A1" transform="translate(245,71)"/>
<path d="M0 0 C8.25 0 16.5 0 25 0 C25 7.26 25 14.52 25 22 C16.75 22 8.5 22 0 22 C0 14.74 0 7.48 0 0 Z " fill="#59A0A1" transform="translate(36,71)"/>
<path d="M0 0 C7.92 0 15.84 0 24 0 C24 7.26 24 14.52 24 22 C16.08 22 8.16 22 0 22 C0 14.74 0 7.48 0 0 Z " fill="#58A0A1" transform="translate(391,71)"/>
<path d="M0 0 C3.60610485 0.67532509 7.09259151 1.57704372 10.625 2.5625 C21.14565599 5.17337184 29.68368356 3.95846816 40 1 C41.33188704 0.66093392 42.66464903 0.32515638 44 0 C44.3545615 3.07286629 44.49282415 5.9370714 44 9 C41.5625 11.375 41.5625 11.375 38 13 C37.36964844 13.29648437 36.73929687 13.59296875 36.08984375 13.8984375 C27.05621681 17.57942941 17.26233829 17.2872825 8.3125 13.625 C5.33064576 12.24503498 2.73884493 10.82589662 0 9 C-0.29296875 6.8359375 -0.29296875 6.8359375 -0.1875 4.375 C-0.16042969 3.55773437 -0.13335937 2.74046875 -0.10546875 1.8984375 C-0.05326172 0.95871094 -0.05326172 0.95871094 0 0 Z " fill="#58A1A2" transform="translate(279,362)"/>
<path d="M0 0 C2.64 1.65 5.28 3.3 8 5 C6.9717701 7.99900389 6.13065169 9.86717882 3.8828125 12.15234375 C1.68915513 15.47013674 1.9025658 17.21964947 2.36010742 21.07958984 C3.09190539 27.4209396 3.08172 32.21315072 -0.99609375 37.375 C-3.95582951 40.64309023 -7.14472621 43.63617063 -10.44775391 46.55371094 C-12.21926981 48.20430235 -13.56176147 50.06005036 -15 52 C-15.66 52 -16.32 52 -17 52 C-14.54211736 42.23934266 -11.39336141 32.69922691 -8.27441406 23.13525391 C-7.36621334 20.3480342 -6.46414622 17.55887728 -5.5625 14.76953125 C-4.98734337 12.99988159 -4.41183565 11.23034599 -3.8359375 9.4609375 C-3.56615082 8.62565521 -3.29636414 7.79037292 -3.0184021 6.92977905 C-1.11482756 1.11482756 -1.11482756 1.11482756 0 0 Z " fill="#58A1A2" transform="translate(330,380)"/>
<path d="M0 0 C1.80559671 2.70839507 2.68892801 4.70223469 3.69580078 7.74682617 C4.01598175 8.70759567 4.33616272 9.66836517 4.66604614 10.6582489 C5.00570404 11.69270645 5.34536194 12.727164 5.6953125 13.79296875 C6.04761932 14.85413406 6.39992615 15.91529938 6.76290894 17.00862122 C7.88783412 20.40019718 9.00648435 23.79380548 10.125 27.1875 C10.88630657 29.48646466 11.64802029 31.78529454 12.41015625 34.08398438 C14.27816573 39.72110043 16.14102667 45.35989804 18 51 C15 51 15 51 13.31420898 49.6105957 C12.71423096 48.97210693 12.11425293 48.33361816 11.49609375 47.67578125 C10.83802734 46.97646484 10.17996094 46.27714844 9.50195312 45.55664062 C8.82068359 44.81607422 8.13941406 44.07550781 7.4375 43.3125 C6.40979492 42.2306543 6.40979492 42.2306543 5.36132812 41.12695312 C2.04153956 37.55956503 -0.50905922 34.72514985 -2 30 C-1.765625 26.73046875 -1.765625 26.73046875 -1.25 23.1875 C-0.75866335 18.08721191 -0.70404018 15.3891162 -4 11.375 C-4.5775 10.80523437 -5.155 10.23546875 -5.75 9.6484375 C-7 8 -7 8 -6.87890625 5.9296875 C-5.47187104 2.84046353 -2.83845898 1.69099684 0 0 Z " fill="#58A1A2" transform="translate(272,380)"/>
<path d="M0 0 C3.5 0.8125 3.5 0.8125 5.4375 1.9375 C7.1712306 4.99702459 6.92145216 7.38067525 6.5 10.8125 C4.9375 13.25 4.9375 13.25 2.5 14.8125 C-3.36310905 15.53253094 -3.36310905 15.53253094 -6.375 13.625 C-7.83551279 11.27195162 -8.30213778 9.5825711 -8.5 6.8125 C-7.11055251 1.83364648 -5.46611062 -0.29282735 0 0 Z " fill="#58A1A2" transform="translate(239.5,405.1875)"/>
<path d="M0 0 C2.31 0.33 4.62 0.66 7 1 C8.1875 3.6875 8.1875 3.6875 9 7 C7.88483109 9.38964766 6.86049542 11.13950458 5 13 C3.35 13 1.7 13 0 13 C0 8.71 0 4.42 0 0 Z " fill="#5AA0A1" transform="translate(348,302)"/>
<path d="M0 0 C0 4.29 0 8.58 0 13 C-2.97 12.505 -2.97 12.505 -6 12 C-8.31282587 8.53076119 -8.42478586 7.07794425 -8 3 C-5.68538278 -0.65465877 -4.67160771 0 0 0 Z " fill="#58A1A2" transform="translate(254,302)"/>
</svg>
