<?xml version="1.0" encoding="UTF-8"?>
<svg version="1.1" xmlns="http://www.w3.org/2000/svg" width="512" height="512">
<path d="M0 0 C2.515625 2.0390625 2.515625 2.0390625 5.25 4.625 C6.22862345 5.53964406 7.20779346 6.45370367 8.1875 7.3671875 C9.115625 8.23601562 10.04375 9.10484375 11 10 C13.03594978 11.81680241 15.08809813 13.61065822 17.15625 15.390625 C18.42845292 16.50110721 19.67743404 17.63856487 20.90625 18.796875 C21.5146875 19.35890625 22.123125 19.9209375 22.75 20.5 C23.54664063 21.25796875 23.54664063 21.25796875 24.359375 22.03125 C25.96799061 23.19304529 25.96799061 23.19304529 27.9765625 22.84375 C30.31568303 21.86836383 31.75926131 20.71489174 33.625 19 C34.66527344 18.05640625 34.66527344 18.05640625 35.7265625 17.09375 C36.47679687 16.4028125 37.22703125 15.711875 38 15 C40.51060174 12.73647335 43.02507874 10.47761376 45.546875 8.2265625 C47.12651781 6.79281027 48.68123109 5.33084747 50.203125 3.8359375 C50.87859375 3.18882812 51.5540625 2.54171875 52.25 1.875 C52.83265625 1.29492188 53.4153125 0.71484375 54.015625 0.1171875 C57.04557968 -1.58865312 58.66289752 -0.90766097 62 0 C65.30223344 1.15426294 68.52456055 2.45997554 71.75 3.8125 C72.61238281 4.15603516 73.47476563 4.49957031 74.36328125 4.85351562 C75.18699219 5.19705078 76.01070312 5.54058594 76.859375 5.89453125 C77.60670898 6.20237549 78.35404297 6.51021973 79.12402344 6.82739258 C81.43401602 8.27128825 82.03893595 9.48077891 83 12 C83.95377875 16.33099532 84.10766053 20.44926847 84.0625 24.875 C84.05347656 26.02742188 84.04445312 27.17984375 84.03515625 28.3671875 C84.01775391 29.67042969 84.01775391 29.67042969 84 31 C83.2265625 31.27972656 82.453125 31.55945313 81.65625 31.84765625 C71.50617166 35.75443145 65.00755358 40.15846555 59.91015625 49.88671875 C58.08180342 54.13195001 57.87173314 57.86307194 57.8671875 62.48046875 C57.86525391 64.34928711 57.86525391 64.34928711 57.86328125 66.25585938 C57.86714844 67.55330078 57.87101563 68.85074219 57.875 70.1875 C57.87113281 71.49654297 57.86726562 72.80558594 57.86328125 74.15429688 C57.86457031 75.39630859 57.86585938 76.63832031 57.8671875 77.91796875 C57.86887939 79.63149536 57.86887939 79.63149536 57.87060547 81.37963867 C57.70243609 83.92622659 57.70243609 83.92622659 59 85 C61.69654854 85.07319621 64.36691458 85.09242537 67.0625 85.0625 C67.82111328 85.05798828 68.57972656 85.05347656 69.36132812 85.04882812 C71.24091871 85.0370068 73.12046899 85.01907078 75 85 C75.66 83.35 76.32 81.7 77 80 C70.565 79.505 70.565 79.505 64 79 C63.91852339 75.49952346 63.85926872 72.00097261 63.8125 68.5 C63.78736328 67.51773438 63.76222656 66.53546875 63.73632812 65.5234375 C63.65036346 56.92697127 65.14739843 50.02574105 71.140625 43.54296875 C76.36385886 39.2085625 83.0386536 37.24468592 89.77734375 37.625 C97.16002881 38.87058483 101.83513918 42.24840427 106.58984375 47.90234375 C109.41778001 52.10899686 110.2491907 55.70066909 110.1953125 60.73828125 C110.18564453 62.33833008 110.18564453 62.33833008 110.17578125 63.97070312 C110.15064453 65.62489258 110.15064453 65.62489258 110.125 67.3125 C110.11597656 68.43462891 110.10695312 69.55675781 110.09765625 70.71289062 C110.07414594 73.47535217 110.03827662 76.2377036 110 79 C104.06 79.495 104.06 79.495 98 80 C98.33 81.65 98.66 83.3 99 85 C104.94 85 110.88 85 117 85 C116.99484237 80.80169288 116.97090775 76.61123921 116.90234375 72.41455078 C116.88438717 70.993095 116.87657762 69.5714677 116.87988281 68.14990234 C116.89484809 57.54700471 115.43758057 48.46139954 108.34936523 40.03857422 C103.6296208 35.31335897 97.11232742 33.33504643 91 31 C90.67 24.73 90.34 18.46 90 12 C93.98004448 13.5811549 97.95904601 15.16485213 101.9375 16.75 C103.05447266 17.1934375 104.17144531 17.636875 105.32226562 18.09375 C130.38107515 28.08787931 130.38107515 28.08787931 136 40 C137.18396361 43.59066142 137.14006531 47.03758006 137.16113281 50.80053711 C137.16609772 51.47583969 137.17106262 52.15114227 137.17617798 52.84690857 C137.19074497 55.07373077 137.19759152 57.3004818 137.203125 59.52734375 C137.20887982 61.07906597 137.21463751 62.63078818 137.22039795 64.18251038 C137.23089159 67.433119 137.23674533 70.683703 137.24023438 73.93432617 C137.24572356 78.09502437 137.26976728 82.25539606 137.29820633 86.41599178 C137.31684657 89.6202133 137.32203898 92.82435625 137.32357025 96.0286274 C137.32659288 97.56240186 137.33460831 99.09617507 137.34775543 100.62989616 C137.36484974 102.77687228 137.36292825 104.92305142 137.35644531 107.07006836 C137.36191376 108.90063026 137.36191376 108.90063026 137.36749268 110.76817322 C136.9603916 114.34832662 136.22109748 116.18219885 134 119 C130.25888856 121.62993247 126.15991608 121.28479924 121.77003479 121.26742554 C120.93301669 121.27195665 120.09599858 121.27648776 119.23361629 121.28115618 C116.42464991 121.29383188 113.61587662 121.29217778 110.80688477 121.29052734 C108.79472605 121.29651055 106.78256964 121.30331562 104.77041626 121.31088257 C99.30147131 121.32856938 93.83258892 121.33323904 88.36361814 121.33451414 C83.80081931 121.33641189 79.2380351 121.34376787 74.67524189 121.35085833 C63.91263746 121.36714955 53.15006651 121.37202656 42.38745117 121.37060547 C31.27771396 121.36940336 20.1681708 121.39051746 9.05848271 121.4220928 C-0.4745152 121.44822346 -10.0074496 121.45897414 -19.54048306 121.45769465 C-25.23654026 121.45718414 -30.93242499 121.46291683 -36.62844658 121.48405075 C-41.98418619 121.50337942 -47.33958784 121.5035944 -52.6953392 121.48901749 C-54.66217987 121.48692171 -56.62904139 121.4916758 -58.59584618 121.5037384 C-61.27864804 121.51912811 -63.96027538 121.5099247 -66.64305115 121.49447632 C-67.42340286 121.50476344 -68.20375458 121.51505057 -69.00775331 121.52564943 C-72.69949507 121.47859308 -74.80241102 121.12658397 -77.94135094 119.11564445 C-81.95546528 114.99039606 -82.25192601 111.11274612 -82.2746582 105.51660156 C-82.28419022 104.22465881 -82.29372223 102.93271606 -82.30354309 101.60162354 C-82.30328156 100.19795708 -82.30234402 98.79429061 -82.30078125 97.390625 C-82.30467258 95.9395943 -82.30900815 94.48856473 -82.31376648 93.03753662 C-82.32121804 89.99796863 -82.3209462 86.95851679 -82.31567383 83.91894531 C-82.30989559 80.04448219 -82.32677502 76.17049967 -82.3500185 72.29611588 C-82.36483403 69.29845448 -82.36561673 66.30090656 -82.36250877 63.30321503 C-82.36301857 61.87602541 -82.36819134 60.44882887 -82.37832069 59.02167511 C-82.44374172 48.51114315 -81.89838432 39.38992688 -75 31 C-68.66342537 25.12086472 -61.07191455 22.23613251 -53.125 19.125 C-51.8771951 18.62341228 -50.6297957 18.12081455 -49.3828125 17.6171875 C-40.31996909 14 -40.31996909 14 -38 14 C-37.93548124 17.89756055 -37.95970135 21.78972456 -38 25.6875 C-37.98066406 26.79029297 -37.96132812 27.89308594 -37.94140625 29.02929688 C-38.08739033 37.08275207 -38.08739033 37.08275207 -40.77734375 39.78637695 C-42.9375 41.09375 -42.9375 41.09375 -45.08984375 42.06445312 C-47.31111937 42.96410064 -47.31111937 42.96410064 -49 45.8125 C-50.64265387 51.04845921 -50.70167293 55.07963199 -48.8125 60.25 C-46.46100791 63.8177811 -43.81557843 66.09221079 -40 68 C-35.1317925 68.5341019 -31.13371903 68.50387512 -26.625 66.5 C-22.76573425 62.8245088 -20.11989792 59.12777181 -19.91015625 53.65625 C-20.28337957 49.58472292 -20.94247059 45.5736037 -23 42 C-24.79927039 40.72510734 -24.79927039 40.72510734 -27 40 C-28.66751717 39.33546353 -30.33428442 38.66903948 -32 38 C-32.05474393 35.2080595 -32.09402442 32.41722767 -32.125 29.625 C-32.14175781 28.85027344 -32.15851563 28.07554687 -32.17578125 27.27734375 C-32.19589859 24.84314619 -32.11211809 22.43153121 -32 20 C-31.9995166 19.13689209 -31.9990332 18.27378418 -31.99853516 17.38452148 C-31.7720379 14.46501023 -31.40779722 12.57921264 -30 10 C-26.01815763 7.12069201 -21.71315035 5.50790743 -17.125 3.8125 C-15.92746094 3.32458984 -14.72992188 2.83667969 -13.49609375 2.33398438 C-3.67049052 -1.54454322 -3.67049052 -1.54454322 0 0 Z M-60 81 C-59.67 82.65 -59.34 84.3 -59 86 C-39.86 86 -20.72 86 -1 86 C-0.67 84.35 -0.34 82.7 0 81 C-3.35047332 78.76635112 -4.4444963 78.74766754 -8.35766602 78.74121094 C-9.99935509 78.73175446 -9.99935509 78.73175446 -11.67420959 78.72210693 C-13.44615944 78.72817963 -13.44615944 78.72817963 -15.25390625 78.734375 C-16.46570053 78.73246155 -17.67749481 78.7305481 -18.92601013 78.72857666 C-21.48900561 78.72721486 -24.05200799 78.7309109 -26.61499023 78.73925781 C-30.55012404 78.74996632 -34.48480224 78.73935724 -38.41992188 78.7265625 C-40.90625101 78.72788391 -43.39257987 78.73044593 -45.87890625 78.734375 C-47.06223038 78.73032654 -48.2455545 78.72627808 -49.46473694 78.72210693 C-50.55604416 78.72841125 -51.64735138 78.73471558 -52.77172852 78.74121094 C-54.2170974 78.74359772 -54.2170974 78.74359772 -55.69166565 78.74603271 C-58.19489568 78.77787237 -58.19489568 78.77787237 -60 81 Z " fill="#58A1A2" transform="translate(138,166)"/>
<path d="M0 0 C0.8382431 -0.01857559 1.67648621 -0.03715118 2.54013062 -0.05628967 C3.45139709 -0.06121429 4.36266357 -0.06613892 5.30154419 -0.07121277 C6.7509993 -0.09596428 6.7509993 -0.09596428 8.22973633 -0.12121582 C11.42575653 -0.17012415 14.62133864 -0.19544114 17.81765747 -0.21647644 C18.90975651 -0.22620672 20.00185555 -0.235937 21.12704849 -0.24596214 C26.90462461 -0.29677661 32.68197925 -0.32955451 38.45974731 -0.34757996 C44.42834506 -0.36963468 50.39449662 -0.45211775 56.36228752 -0.54869556 C60.95200769 -0.61208549 65.54113924 -0.63087617 70.13125992 -0.63753319 C72.33140796 -0.64845836 74.53153923 -0.67614912 76.73125839 -0.72094154 C93.96351164 -1.0481811 93.96351164 -1.0481811 98.43734741 2.62205505 C100.05306547 5.23945645 101.00266982 7.45906324 101.76296997 10.42805481 C102.25796997 11.91305481 102.25796997 11.91305481 102.76296997 13.42805481 C54.74796997 13.92305481 54.74796997 13.92305481 5.76296997 14.42805481 C5.76296997 72.83805481 5.76296997 131.24805481 5.76296997 191.42805481 C8.16170466 192.62742215 9.6379282 192.55337643 12.3166666 192.55389595 C13.76384047 192.55780757 13.76384047 192.55780757 15.24025017 192.56179821 C16.3076441 192.55956749 17.37503802 192.55733677 18.47477722 192.55503845 C19.60284096 192.55659844 20.73090469 192.55815843 21.89315218 192.5597657 C25.69881085 192.56377599 29.5044301 192.56058593 33.31008911 192.55744934 C36.02793969 192.55825292 38.74578856 192.56054692 41.46363831 192.5627594 C48.09452564 192.56721512 54.72540167 192.56624154 61.35628945 192.56334676 C66.74286719 192.56109214 72.12944175 192.56078046 77.51601982 192.56187057 C78.28145982 192.56202381 79.04689982 192.56217704 79.83553497 192.56233492 C81.39029817 192.56265463 82.94506138 192.56297884 84.49982458 192.56330751 C99.09183828 192.56616167 113.68384572 192.56287617 128.27585839 192.55750714 C140.80973271 192.55303827 153.34359777 192.55381585 165.87747192 192.5584259 C180.41735834 192.56377125 194.95723926 192.56588793 209.49712652 192.56281364 C211.04599631 192.56249507 212.5948661 192.5621807 214.14373589 192.56187057 C215.2869815 192.56163916 215.2869815 192.56163916 216.453323 192.56140307 C221.83698191 192.56053786 227.22063735 192.56200086 232.60429573 192.56435013 C239.1599874 192.56714784 245.71566708 192.56641044 252.27135736 192.56106938 C255.61927207 192.55843211 258.9671501 192.55796149 262.31506729 192.56071854 C265.936114 192.56342681 269.55710337 192.5600529 273.17814636 192.55503845 C274.24777101 192.55726917 275.31739566 192.5594999 276.41943318 192.56179821 C277.38160801 192.55919047 278.34378284 192.55658272 279.33511448 192.55389595 C280.1720731 192.5537336 281.00903173 192.55357125 281.87135273 192.55340397 C283.77473828 192.63588819 283.77473828 192.63588819 284.76296997 191.42805481 C284.86004608 189.16248094 284.88483618 186.89381179 284.88322449 184.62615967 C284.88407891 183.90660003 284.88493334 183.18704039 284.88581365 182.44567591 C284.88747057 180.01651901 284.88194365 177.58743003 284.87649536 175.15827942 C284.87621351 173.42416383 284.87637118 171.69004813 284.87693787 169.95593262 C284.87722592 165.2329916 284.87132796 160.51007575 284.86436391 155.78714061 C284.85813163 150.85702691 284.85752667 145.92691269 284.8563385 140.99679565 C284.85322481 131.65409119 284.84501092 122.31139837 284.83498901 112.96869904 C284.82382904 102.33526426 284.81831772 91.70182894 284.81329358 81.06838977 C284.80282833 59.18827161 284.78522817 37.30816394 284.76296997 15.42805481 C281.38113859 13.73713912 277.5371253 14.24704373 273.81521606 14.22273254 C272.88833481 14.21283295 271.96145355 14.20293335 271.00648499 14.19273376 C267.93315208 14.16106661 264.85980369 14.13634073 261.78640747 14.11164856 C259.65933829 14.09108354 257.53227323 14.07008719 255.4052124 14.04867554 C249.79925881 13.99340823 244.19326805 13.94401951 238.58724976 13.89582825 C232.86974774 13.84564721 227.15229987 13.78994343 221.43484497 13.73469543 C210.21093287 13.62705688 198.9869738 13.52562459 187.76296997 13.42805481 C188.90691899 11.44779842 190.05318101 9.46887803 191.20046997 7.49055481 C191.83855591 6.38840637 192.47664185 5.28625793 193.13406372 4.15071106 C194.76296997 1.42805481 194.76296997 1.42805481 195.76296997 0.42805481 C198.81068482 0.30606784 201.83611197 0.24938985 204.88504028 0.23518372 C205.84275833 0.22700623 206.80047638 0.21882874 207.78721619 0.21040344 C210.97183598 0.18549365 214.15641102 0.16901847 217.34109497 0.15461731 C218.96869373 0.14663179 218.96869373 0.14663179 220.62917328 0.13848495 C226.37314651 0.11172807 232.11709783 0.09236201 237.8611145 0.07795715 C243.80104255 0.06131045 249.74041563 0.01653928 255.68013382 -0.03441429 C260.24059704 -0.06803952 264.8009279 -0.07961521 269.3615036 -0.08526993 C271.55120836 -0.09199634 273.740904 -0.10725424 275.93048859 -0.13116074 C278.99522816 -0.16271072 282.0584628 -0.16286392 285.12332153 -0.15544128 C286.48258507 -0.18004929 286.48258507 -0.18004929 287.86930847 -0.20515442 C288.70773788 -0.19683594 289.5461673 -0.18851746 290.41000366 -0.1799469 C291.13415592 -0.18325705 291.85830818 -0.18656719 292.60440445 -0.18997765 C296.11862861 0.81620195 297.57365421 2.54519668 299.76296997 5.42805481 C300.24910286 8.40802192 300.42800452 10.81116375 300.37770081 13.78500366 C300.38338406 14.62358176 300.38906732 15.46215985 300.39492279 16.3261494 C300.40783708 19.13479337 300.3850268 21.94199936 300.36233521 24.75056458 C300.36419906 26.76449384 300.36823527 28.77842209 300.37428284 30.79234314 C300.38426779 36.26134694 300.36307056 41.72983348 300.33580279 47.19876218 C300.31199408 52.91840711 300.31491791 58.6380414 300.3144989 64.35772705 C300.3098692 73.96223217 300.28621531 83.5665392 300.25003052 93.17097473 C300.20828427 104.28127451 300.19071504 115.39139589 300.18741077 126.5017696 C300.1838133 138.32228518 300.16494142 150.14273638 300.1402905 161.96322513 C300.1340571 165.37308259 300.13042379 168.78293515 300.12725639 172.19279671 C300.12136219 177.5468566 300.10506679 182.9007886 300.08065224 188.25479507 C300.07320229 190.22204157 300.06913967 192.18930417 300.06867218 194.15656471 C300.06741743 196.83720556 300.0538953 199.51750744 300.03712463 202.1980896 C300.03953972 202.98067204 300.0419548 203.76325447 300.04444307 204.56955153 C299.97797859 211.33280944 299.97797859 211.33280944 297.76296997 214.42805481 C295.27323229 215.67292365 293.6110158 215.55567386 290.8244257 215.55948257 C289.77379163 215.56332372 288.72315756 215.56716486 287.64068609 215.57112241 C286.4773827 215.57025593 285.3140793 215.56938944 284.11552429 215.5684967 C282.27241217 215.57295339 282.27241217 215.57295339 280.39206547 215.5775001 C276.9704869 215.58469625 273.54895852 215.58736065 270.12737596 215.58809757 C266.44156031 215.58994505 262.75575563 215.59749076 259.06994629 215.60423279 C251.00607238 215.61782842 242.94220344 215.62384255 234.87831998 215.62824345 C229.84662791 215.63100341 224.81493776 215.63524028 219.78324699 215.63974762 C205.86135383 215.65194118 191.93946221 215.66224079 178.01756382 215.66562271 C177.12613776 215.66584228 176.2347117 215.66606184 175.31627273 215.66628806 C173.97587758 215.66661548 173.97587758 215.66661548 172.60840374 215.66694951 C170.79753975 215.66739298 168.98667576 215.66783955 167.17581177 215.66828918 C166.27755466 215.66851061 165.37929754 215.66873204 164.45382052 215.66896018 C149.89010043 215.67291046 135.32643031 215.69037108 120.76272953 215.71364871 C105.82275578 215.73733573 90.88280713 215.74982333 75.94281429 215.75099063 C67.54951599 215.75190881 59.15628281 215.75769705 50.7630024 215.77581024 C43.61775782 215.79117544 36.47259849 215.79635292 29.32734055 215.78807214 C25.67938575 215.78415304 22.03160279 215.78515613 18.3836689 215.79912949 C14.43483718 215.81411764 10.48625015 215.80603936 6.53739929 215.79554749 C4.79579028 215.80763209 4.79579028 215.80763209 3.01899725 215.81996083 C1.96575544 215.81337099 0.91251362 215.80678114 -0.17264462 215.79999161 C-1.54085949 215.80088724 -1.54085949 215.80088724 -2.93671507 215.80180097 C-5.23703003 215.42805481 -5.23703003 215.42805481 -7.02978432 214.13135839 C-9.12836268 211.17047313 -8.65092066 207.65250057 -8.62471008 204.1530304 C-8.63009562 203.29912138 -8.63548116 202.44521235 -8.64102989 201.5654273 C-8.65538061 198.6933196 -8.64818832 195.82166818 -8.64108276 192.94953918 C-8.64678258 190.89487333 -8.65374532 188.84021064 -8.66188049 186.78555298 C-8.67986896 181.19681904 -8.67863297 175.60824161 -8.67293811 170.01948738 C-8.66985479 165.35961757 -8.67592906 160.69977819 -8.68197685 156.0399127 C-8.69603886 145.05061547 -8.69444656 134.06139594 -8.68307495 123.07209778 C-8.67158871 111.72091779 -8.68567421 100.36997392 -8.71247143 89.01882505 C-8.73459424 79.2845987 -8.74127363 69.55044664 -8.73539501 59.81619692 C-8.73201644 53.99723948 -8.73450019 48.17843346 -8.75164604 42.35949707 C-8.76705893 36.88967607 -8.7632227 31.42020624 -8.7443409 25.9503994 C-8.74063945 23.93918617 -8.74380843 21.92794724 -8.75422668 19.91675758 C-8.76733211 17.17845393 -8.75598276 14.4413309 -8.73823547 11.70307922 C-8.74784048 10.90065591 -8.75744549 10.0982326 -8.76734155 9.27149343 C-8.69594337 3.94514045 -8.69594337 3.94514045 -6.47051907 1.43761921 C-4.11729066 0.37393115 -2.57074245 0.03620091 0 0 Z " fill="#58A0A2" transform="translate(20.237030029296875,118.57194519042969)"/>
<path d="M0 0 C4.38447322 3.67072176 6.27482098 6.17661682 6.81640625 12.08984375 C6.52037563 17.05059932 4.1141904 20.90723256 0.5625 24.25 C-3.77148278 25.75747227 -7.77885519 25.91009868 -12.3125 25.25 C-16.52548009 23.14350996 -18.40181899 21.46057481 -20.3125 17.25 C-30.59177025 16.65948873 -38.5747218 18.14662375 -46.5234375 24.9453125 C-52.01760366 32.02295013 -52.88845662 39.00950829 -52.73828125 47.75 C-52.73499313 48.82572266 -52.73170502 49.90144531 -52.72831726 51.00976562 C-52.71266785 54.42359751 -52.66868334 57.83642474 -52.625 61.25 C-52.61349634 63.5416586 -52.60371483 65.83332653 -52.59570312 68.125 C-52.58227547 70.33334328 -52.56735152 72.54167807 -52.55078125 74.75 C-52.54339432 75.76900391 -52.53600739 76.78800781 -52.52839661 77.83789062 C-52.45078593 83.71109163 -52.06003261 89.4232335 -51.3125 95.25 C-50.3225 94.92 -49.3325 94.59 -48.3125 94.25 C-43.35136043 95.0768566 -40.59537853 96.33787764 -37.55859375 100.41015625 C-35.60844249 103.28953319 -33.68569129 106.18644346 -31.765625 109.0859375 C-23.96911179 120.69687384 -13.39528309 125.66905986 -0.40234375 129.8671875 C14.99294809 132.68725965 29.88265177 128.41919042 42.75390625 119.87890625 C47.83249214 115.86830039 51.12240503 110.5771534 54.6875 105.25 C55.75797923 103.74079977 56.84036574 102.23993541 57.9375 100.75 C58.39640625 100.1209375 58.8553125 99.491875 59.328125 98.84375 C62.58472453 95.02566779 65.93679835 94.78781528 70.6875 94.25 C72.63011729 87.70792919 73.02285482 81.6873025 73.05859375 74.8828125 C73.06762222 73.80804657 73.0766507 72.73328064 73.08595276 71.62594604 C73.10040145 69.36182416 73.10932854 67.09766104 73.11303711 64.83349609 C73.12494057 61.39218111 73.1741882 57.9526566 73.22460938 54.51171875 C73.23407448 52.302092 73.2413091 50.09245434 73.24609375 47.8828125 C73.27539223 46.35734299 73.27539223 46.35734299 73.30528259 44.80105591 C73.25122791 36.13430383 70.74307602 28.99241968 64.5 22.8125 C58.25203575 18.03862255 50.47945049 16.59523433 42.7421875 16.82421875 C40.42373102 17.07411369 40.42373102 17.07411369 38.875 19.5625 C38.483125 20.449375 38.09125 21.33625 37.6875 22.25 C33.84572516 25.62610516 30.04462754 25.76603636 25.125 25.59765625 C21.43883356 25.07190495 19.39766051 23.76185609 16.6875 21.25 C13.59089685 16.95471176 13.26321588 13.51484049 14.04296875 8.43359375 C15.31023837 4.14023789 17.95446362 1.56471726 21.5 -1.125 C26.64999742 -2.59642784 30.34887471 -2.45719826 35 0 C37.6875 2.25 37.6875 2.25 38.859375 4.3359375 C41.63378053 7.2407638 44.82341721 6.92384708 48.625 7.125 C59.02522482 8.02240849 68.02214626 11.36288882 75.22265625 19.25 C79.61706085 25.24982708 82.80177662 31.89849502 82.83276367 39.37304688 C82.83914352 40.41843628 82.84552338 41.46382568 82.85209656 42.54089355 C82.85376579 44.2376825 82.85376579 44.2376825 82.85546875 45.96875 C82.85879715 47.13700317 82.86212555 48.30525635 82.86555481 49.50891113 C82.8706235 51.98705654 82.87296315 54.46520879 82.87280273 56.94335938 C82.87497527 60.70714865 82.89309312 64.47063815 82.91210938 68.234375 C82.91504622 70.64583234 82.91702906 73.05729106 82.91796875 75.46875 C82.92515427 76.58374878 82.93233978 77.69874756 82.93974304 78.84753418 C82.92169574 85.12764088 82.38005333 90.90650586 80.98262024 97.03674316 C80.55919445 100.21222862 81.9227667 101.6707744 83.6875 104.25 C85.13487161 110.85109667 82.93683565 115.7964887 79.58203125 121.421875 C65.89332266 141.85615339 48.44856169 151.67744844 25.6875 159.25 C25.67291748 160.17748047 25.65833496 161.10496094 25.64331055 162.06054688 C25.58188849 165.53490808 25.50767084 169.00852453 25.42504883 172.48242188 C25.39200134 173.97971472 25.36390798 175.4771261 25.34106445 176.97460938 C25.0856173 193.27974701 25.0856173 193.27974701 21.6875 199.25 C20.64851562 199.80558594 19.60953125 200.36117187 18.5390625 200.93359375 C15.45415772 202.93274915 15.45415772 202.93274915 15.17480469 205.90283203 C15.01306812 209.38329864 15.00285345 212.82876877 15.0625 216.3125 C15.20763313 229.57041118 13.62177821 239.27353313 4.203125 249.08203125 C-4.86421928 256.89627981 -14.77445362 258.07747605 -26.3125 257.25 C-36.28531643 254.9230095 -43.59723453 249.05677805 -49.0859375 240.59375 C-52.09166098 234.85032934 -52.61424374 229.75837054 -52.65625 223.4140625 C-52.6708728 222.57587982 -52.68549561 221.73769714 -52.70056152 220.87411499 C-52.74682613 218.20779129 -52.78114599 215.54153812 -52.8125 212.875 C-52.85391391 209.36692349 -52.90769314 205.85934612 -52.96875 202.3515625 C-52.97666565 201.16211533 -52.97666565 201.16211533 -52.98474121 199.94863892 C-53.14408207 190.91106929 -55.06760838 183.06496471 -61.3125 176.25 C-67.12944175 171.79931503 -73.09969111 170.41923298 -80.3515625 170.7734375 C-88.12589078 172.02471461 -93.541204 175.60250633 -98.15625 181.89453125 C-101.41757609 188.53838136 -101.6356073 195.40298917 -101.7265625 202.65625 C-101.74592865 203.6215564 -101.7652948 204.58686279 -101.7852478 205.5814209 C-101.84460018 208.63752657 -101.89125038 211.69367082 -101.9375 214.75 C-101.97572064 216.83334895 -102.0147747 218.91668278 -102.0546875 221 C-102.15026489 226.0832093 -102.23445813 231.16649247 -102.3125 236.25 C-101.04414307 236.39171631 -99.77578613 236.53343262 -98.46899414 236.67944336 C-90.52243989 237.56732934 -84.63353947 243.16517384 -79.75390625 249.2109375 C-74.36159433 256.83908607 -73.95027805 266.18417803 -75.3125 275.25 C-77.82744154 283.40283247 -82.22298409 289.52804042 -89.3125 294.25 C-89.95574219 294.68183594 -90.59898437 295.11367188 -91.26171875 295.55859375 C-98.92092472 299.77480427 -109.02416908 299.51947096 -117.35546875 297.51953125 C-126.77414067 294.02849552 -131.85166921 288.03312645 -136.3125 279.25 C-139.47335891 271.20417733 -139.16208936 262.82639315 -136.40625 254.69921875 C-132.74082106 246.4912761 -126.60239062 240.70412109 -118.3125 237.25 C-115.98333232 236.88870587 -113.65003624 236.55245639 -111.3125 236.25 C-111.32138245 235.70257645 -111.33026489 235.15515289 -111.3394165 234.59114075 C-111.42874267 228.83113172 -111.48858286 223.0713232 -111.53222656 217.31079102 C-111.5521927 215.16845695 -111.57937538 213.02617632 -111.61425781 210.8840332 C-112.05900597 182.84527822 -112.05900597 182.84527822 -103.3125 171.8125 C-96.66888109 165.11433578 -88.35937189 160.53437488 -78.80859375 160.15234375 C-67.79151067 160.58337204 -59.0799747 163.91594718 -51.4375 172.0625 C-44.53546539 180.57609457 -43.1923733 189.43404746 -43.13671875 200.0859375 C-43.11352356 201.80730394 -43.08940635 203.52865815 -43.06445312 205.25 C-43.02938277 207.93790952 -42.99999817 210.6253662 -42.98657227 213.31347656 C-42.97100637 215.92567354 -42.93075633 218.53658483 -42.88671875 221.1484375 C-42.88862717 221.94140228 -42.89053558 222.73436707 -42.89250183 223.55136108 C-42.74771486 230.23136753 -40.77200642 235.44332667 -36.34765625 240.4921875 C-35.69667969 241.03101563 -35.04570312 241.56984375 -34.375 242.125 C-33.40240234 242.95644531 -33.40240234 242.95644531 -32.41015625 243.8046875 C-26.44085593 247.91761323 -20.34614416 248.08212478 -13.3125 247.25 C-6.7371301 245.27279087 -2.40457807 241.9820989 1.53125 236.41015625 C5.14396257 229.66073041 5.11866466 223.12805175 5.1875 215.625 C5.22875 214.49320313 5.27 213.36140625 5.3125 212.1953125 C5.34184743 209.09915913 5.30141296 206.28584612 4.6875 203.25 C1.92679653 200.82265527 1.92679653 200.82265527 -1.3125 199.25 C-3.98088588 194.26648326 -4.77154296 190.00032023 -4.82421875 184.34765625 C-4.84216995 183.6250914 -4.86012115 182.90252655 -4.87861633 182.1580658 C-4.93230006 179.87626789 -4.96647763 177.59467394 -5 175.3125 C-5.03321036 173.75452915 -5.06770341 172.19658509 -5.10351562 170.63867188 C-5.1880012 166.8425962 -5.2550098 163.04657656 -5.3125 159.25 C-6.38886719 158.89808594 -7.46523438 158.54617188 -8.57421875 158.18359375 C-22.35440556 153.57170834 -34.3001585 147.9909344 -45.3125 138.25 C-45.92480469 137.73179687 -46.53710938 137.21359375 -47.16796875 136.6796875 C-53.520922 130.89370262 -62.42302721 119.70734141 -63.61328125 111.06640625 C-63.64618616 104.73769516 -63.64618616 104.73769516 -61.6875 101.875 C-60.00875728 98.67012753 -60.42499931 97.81870741 -61.20556641 94.36938477 C-62.44381125 88.1128922 -62.6354796 82.0786094 -62.6484375 75.71484375 C-62.6584227 73.97588585 -62.6584227 73.97588585 -62.66860962 72.20179749 C-62.6786711 69.76727877 -62.68342867 67.33273284 -62.68310547 64.89819336 C-62.68749226 61.19403566 -62.72392085 57.49105807 -62.76171875 53.78710938 C-62.76758571 51.4088582 -62.77155591 49.03060142 -62.7734375 46.65234375 C-62.78780853 45.55728012 -62.80217957 44.46221649 -62.81698608 43.33396912 C-62.75770936 33.2684226 -60.23391469 25.42341159 -53.21875 18.06640625 C-44.99888595 10.23395383 -37.32001039 7.3849697 -25.9375 6.9375 C-21.96176844 6.76972533 -21.96176844 6.76972533 -18.5859375 4.9296875 C-17.40822817 3.43406891 -16.35339339 1.843868 -15.3125 0.25 C-10.62368783 -3.30702992 -4.88178449 -2.57905596 0 0 Z M-118.6875 260 C-120.67665233 263.97830466 -121.18307168 266.88843587 -120.3125 271.25 C-118.28210499 275.09324769 -116.1944364 278.20120023 -112.3125 280.25 C-106.74576079 281.6416848 -103.11215961 281.55688124 -98.08203125 278.6796875 C-94.91606879 276.12175756 -93.35834763 273.14815934 -92.3125 269.25 C-92.3125 263.81112736 -93.82618108 260.39589277 -97.3125 256.25 C-105.61238987 250.71674009 -112.43174476 252.75649393 -118.6875 260 Z " fill="#58A1A2" transform="translate(416.3125,213.75)"/>
<path d="M0 0 C0 1.32 0 2.64 0 4 C-1.37671875 4.63615234 -1.37671875 4.63615234 -2.78125 5.28515625 C-13.92141691 10.55224539 -21.07612715 15.69479106 -27.45703125 26.546875 C-30.55652646 31.47468004 -34.06344186 33.05478964 -39.4140625 35.109375 C-40.91291005 35.70535298 -42.41160296 36.30171999 -43.91015625 36.8984375 C-46.25778635 37.82303958 -48.60701343 38.74302508 -50.95947266 39.65527344 C-67.02386786 45.64627862 -67.02386786 45.64627862 -78.4375 57.9375 C-78.88996094 58.70964844 -79.34242187 59.48179687 -79.80859375 60.27734375 C-83.5175056 68.75311935 -83.32669053 77.26214124 -83.3359375 86.33984375 C-83.34237656 87.83142724 -83.34910571 89.32300951 -83.35610962 90.81459045 C-83.36803552 93.93037849 -83.37179514 97.04605602 -83.37060547 100.16186523 C-83.37040218 104.13387738 -83.3977352 108.10517491 -83.43214989 112.07701778 C-83.45449558 115.1544565 -83.45844073 118.23172502 -83.45738602 121.30923653 C-83.45972926 122.77272574 -83.46847999 124.23622057 -83.48405075 125.69962883 C-83.56157538 133.73545391 -83.5410267 141.04700068 -79 148 C-77.13875077 149.98239527 -77.13875077 149.98239527 -75 151 C-74.01 151.556875 -74.01 151.556875 -73 152.125 C-68.39705103 154.13879017 -63.99023529 154.14612923 -59.0247345 154.14044189 C-58.21503997 154.14341302 -57.40534544 154.14638414 -56.57111472 154.1494453 C-53.8544469 154.15812575 -51.13782317 154.15964 -48.42114258 154.16113281 C-46.47458807 154.16576149 -44.52803447 154.17078622 -42.58148193 154.17617798 C-37.28996129 154.18930023 -31.99845333 154.19574674 -26.70691895 154.20018864 C-23.40018369 154.20311999 -20.09345189 154.20722495 -16.78671837 154.21169281 C-6.43850051 154.22536804 3.90970943 154.23503425 14.2579357 154.2388947 C26.19903253 154.24337393 38.1400148 154.26091552 50.0810768 154.2898953 C59.31349585 154.31152271 68.5458827 154.32159957 77.77832681 154.32293582 C83.29116329 154.3239832 88.8038921 154.32987665 94.31670189 154.34775543 C99.50496414 154.36425409 104.69303798 154.36638284 109.88131714 154.35761642 C111.78197548 154.35684698 113.68264402 154.3611765 115.58327675 154.37107468 C118.18567914 154.38382894 120.78741771 154.37789865 123.38981628 154.36749268 C124.13517094 154.37554908 124.8805256 154.38360548 125.64846677 154.39190602 C131.45416671 154.33791781 138.05910283 153.54029719 142.59893483 149.61886716 C146.99633042 144.50595803 148.24936509 140.79010888 148.29052734 134.11108398 C148.29724457 133.42591202 148.30396179 132.74074005 148.31088257 132.0348053 C148.32986065 129.7718273 148.3337877 127.50914637 148.3359375 125.24609375 C148.34236944 123.66390361 148.3490981 122.08171465 148.35610962 120.49952698 C148.36808467 117.17991383 148.3717906 113.86040471 148.37060547 110.54077148 C148.37040315 106.31326776 148.3976128 102.08644291 148.43214989 97.85909939 C148.45454044 94.58770265 148.45843919 91.31646555 148.45738602 88.04500008 C148.45972729 86.48826844 148.46846662 84.93153141 148.48405075 83.37487602 C148.59567394 71.06470529 147.43506936 60.31871916 138.49731445 51.04150391 C131.61932027 45.41888319 122.69655386 42.12250615 114.38671875 39.1484375 C113.75382935 38.91842041 113.12093994 38.68840332 112.46887207 38.45141602 C109.89560533 37.51850274 107.324743 36.58691167 104.72729492 35.72314453 C95.06015071 32.4770307 89.96231532 28.61352829 84.78198242 19.95532227 C80.21165119 12.37567305 72.67896322 8.91585466 65 5 C65.33 3.35 65.66 1.7 66 0 C68.7340909 -0.91136363 70.24162811 -1.11490989 73.04325867 -1.08229065 C73.86185458 -1.07527162 74.6804505 -1.06825258 75.52385235 -1.06102085 C76.42178918 -1.04805438 77.31972601 -1.03508791 78.24487305 -1.02172852 C79.20671666 -1.01193686 80.16856028 -1.00214521 81.15955067 -0.99205685 C84.27701448 -0.95914778 87.39434195 -0.91915541 90.51171875 -0.87890625 C92.43476864 -0.8575655 94.35782373 -0.8366883 96.28088379 -0.81628418 C103.41648698 -0.73731319 110.55198846 -0.64935836 117.6875 -0.5625 C133.630625 -0.376875 149.57375 -0.19125 166 0 C166 54.45 166 108.9 166 165 C77.89 165 -10.22 165 -101 165 C-101 110.55 -101 56.1 -101 0 C-77.11625 -0.2784375 -77.11625 -0.2784375 -52.75 -0.5625 C-45.20850098 -0.65446655 -45.20850098 -0.65446655 -37.51464844 -0.74829102 C-31.37548828 -0.81628418 -31.37548828 -0.81628418 -28.50152588 -0.8467865 C-26.49417945 -0.86907976 -24.48685529 -0.89343603 -22.47955322 -0.91941833 C-19.43920062 -0.95837195 -16.39884165 -0.99078042 -13.35839844 -1.02172852 C-12.46405972 -1.03469499 -11.56972099 -1.04766146 -10.6482811 -1.06102085 C-9.41832098 -1.0715494 -9.41832098 -1.0715494 -8.16351318 -1.08229065 C-7.09607691 -1.09473485 -7.09607691 -1.09473485 -6.00707626 -1.10743046 C-3.89357029 -0.99430326 -2.03178859 -0.57791458 0 0 Z " fill="#58A1A2" transform="translate(133,140)"/>
<path d="M0 0 C1.47265625 2.1953125 1.47265625 2.1953125 3.0625 5.125 C7.73260933 12.8291931 13.85870215 15.77581581 22 19 C22.09993489 24.19200215 22.17196401 29.38342719 22.21972656 34.57617188 C22.23966673 36.33733897 22.26682911 38.0984414 22.30175781 39.859375 C22.6037187 55.49029137 20.82837669 69.43847092 9.7421875 81.4453125 C0.09582891 90.60784119 -11.52427411 95.8749932 -24.9375 96.375 C-39.48303992 95.81555616 -51.70615893 90.46427807 -61.703125 79.91015625 C-72.08618278 66.75475141 -73.30779437 53.07341464 -73.125 36.9375 C-73.11495008 35.38867766 -73.10582779 33.83984901 -73.09765625 32.29101562 C-73.07580207 28.52718572 -73.04138343 24.76366377 -73 21 C-72.38705078 20.96036133 -71.77410156 20.92072266 -71.14257812 20.87988281 C-47.56334466 19.28383148 -28.38218958 14.09728469 -7.78295898 2.48925781 C-4.95794234 0.91768411 -3.29109546 0 0 0 Z M-62 29 C-62.598125 29.45375 -63.19625 29.9075 -63.8125 30.375 C-65.45014212 32.61598396 -65.21923623 34.29608652 -65 37 C-62.525 37.495 -62.525 37.495 -60 38 C-59.34 36.68 -58.68 35.36 -58 34 C-54.96538957 33.76656843 -52.02708262 33.63800918 -49 34 C-46.6875 36.0625 -46.6875 36.0625 -45 38 C-42.79649965 38.0953531 -42.79649965 38.0953531 -41 37 C-39.63923098 34.04716131 -39.63923098 34.04716131 -41.125 31.5 C-43.30311909 28.59584122 -44.6367433 27.38917125 -48 26 C-53.4229214 25.28023043 -57.58606758 25.49481837 -62 29 Z M-7 29 C-7.598125 29.45375 -8.19625 29.9075 -8.8125 30.375 C-10.45014212 32.61598396 -10.21923623 34.29608652 -10 37 C-7.525 37.495 -7.525 37.495 -5 38 C-4.34 36.68 -3.68 35.36 -3 34 C0.03461043 33.76656843 2.97291738 33.63800918 6 34 C8.3125 36.0625 8.3125 36.0625 10 38 C12.21858253 37.86358623 12.21858253 37.86358623 14 37 C14.95502158 35.27523089 14.95502158 35.27523089 15 33 C10.76363733 28.05621916 10.76363733 28.05621916 4.9140625 25.69921875 C0.08414126 25.67449219 -3.07352345 25.88191568 -7 29 Z M-42 62 C-41.58306691 66.8642194 -39.67251308 68.89876673 -36 72 C-31.11269644 75.22117735 -26.70317852 75.87815439 -21 75 C-16.33549546 73.39580532 -11.9419633 71.04519954 -9 67 C-8.66501699 64.33165034 -8.66501699 64.33165034 -9 62 C-11.239835 61.04979584 -11.239835 61.04979584 -14 61 C-16.66666667 63.33333333 -16.66666667 63.33333333 -19 66 C-22.61930698 67.20643566 -25.19231005 67.32268559 -29 67 C-32.10039543 65.24505919 -34.48825667 63.51174333 -37 61 C-39.9254644 60.7763932 -39.9254644 60.7763932 -42 62 Z " fill="#58A1A2" transform="translate(191,49)"/>
<path d="M0 0 C12.92168897 9.55821804 22.96830654 22.23432246 26.1015625 38.33984375 C26.63685342 43.13418854 26.51774211 47.93895163 26.37109375 52.75390625 C18.86077321 53.20452548 12.58221679 53.41224853 6.37109375 48.75390625 C2.43141966 44.81423216 0.09992872 40.60897365 -2.3203125 35.609375 C-3.467487 33.64355073 -3.467487 33.64355073 -5.39331055 32.97949219 C-8.5192238 32.6640675 -10.00468298 33.72255886 -12.70703125 35.2890625 C-13.69558105 35.84875732 -14.68413086 36.40845215 -15.70263672 36.98510742 C-16.75080566 37.58943604 -17.79897461 38.19376465 -18.87890625 38.81640625 C-37.50717006 49.23042366 -53.40659777 54.12211505 -74.75390625 53.87890625 C-76.29817126 53.86885329 -77.84244263 53.85973154 -79.38671875 53.8515625 C-83.13424874 53.82973961 -86.88153571 53.79533831 -90.62890625 53.75390625 C-91.0894404 37.71708391 -86.59332176 23.05633188 -76.37890625 10.44140625 C-57.05413454 -10.00489239 -24.03339269 -15.7460159 0 0 Z " fill="#58A1A2" transform="translate(197.62890625,8.24609375)"/>
<path d="M0 0 C1.07549103 -0.00540298 2.15098206 -0.01080597 3.25906372 -0.01637268 C6.80637308 -0.02885792 10.35287061 -0.01237045 13.90014648 0.00561523 C16.36824079 0.00546025 18.83633534 0.00397144 21.3044281 0.00120544 C26.47340675 -0.00017843 31.64210788 0.01237897 36.81103516 0.03515625 C43.43788151 0.06355528 50.06426729 0.06079915 56.6911478 0.04806614 C61.78606605 0.04111312 66.88087775 0.04889378 71.97578239 0.06132317 C74.4194288 0.06584025 76.86308664 0.06617223 79.30673409 0.06225777 C82.72035322 0.05934897 86.13333623 0.07583719 89.546875 0.09765625 C91.06266899 0.09090378 91.06266899 0.09090378 92.60908508 0.08401489 C101.33233334 0.17670211 101.33233334 0.17670211 105.20874023 3.50170898 C109.20874023 8.50170898 109.20874023 8.50170898 109.20874023 26.50170898 C66.63874023 26.50170898 24.06874023 26.50170898 -19.79125977 26.50170898 C-19.79125977 10.50170898 -19.79125977 10.50170898 -16.79125977 4.50170898 C-11.63235725 -0.30943473 -6.67693834 -0.06400804 0 0 Z " fill="#58A1A2" transform="translate(120.791259765625,373.498291015625)"/>
<path d="M0 0 C0.61746094 0.19335938 1.23492187 0.38671875 1.87109375 0.5859375 C4.57365197 1.41686103 7.28355961 2.21567566 10 3 C10.72960937 3.21269531 11.45921875 3.42539063 12.2109375 3.64453125 C23.09351102 6.45619987 33.37025815 5.17652635 44 2 C45.41657512 1.60383916 46.83322495 1.20794524 48.25 0.8125 C49.1575 0.544375 50.065 0.27625 51 0 C52.67615623 11.75002451 52.67615623 11.75002451 48.83203125 16.91015625 C45.98998093 19.44644116 43.0648942 21.73974161 40 24 C38.52872664 25.27690782 37.06861129 26.56690011 35.625 27.875 C34.99335938 28.41898438 34.36171875 28.96296875 33.7109375 29.5234375 C32.20287244 30.82491831 30.72396964 32.1600276 29.25 33.5 C27 35 27 35 25.04394531 34.74853516 C21.64100171 33.50230664 19.31276852 30.85178457 16.75 28.375 C15.59320081 27.28045374 14.43565022 26.18670106 13.27734375 25.09375 C12.71772949 24.56265625 12.15811523 24.0315625 11.58154297 23.484375 C8.94996573 21.01447849 6.2230292 18.65879602 3.48828125 16.3046875 C2.28385674 15.24884029 1.13257488 14.13257488 0 13 C-0.1953125 9.9609375 -0.1953125 9.9609375 -0.125 6.375 C-0.10695312 5.18648437 -0.08890625 3.99796875 -0.0703125 2.7734375 C-0.04710937 1.85820312 -0.02390625 0.94296875 0 0 Z " fill="#58A1A2" transform="translate(140,146)"/>
<path d="M0 0 C4.95820556 0.91187441 7.27895875 2.69191416 10.21289062 6.72460938 C11.96653689 9.57010001 13.56718179 12.47019281 15.09521484 15.44238281 C16.91720582 18.73805516 19.43834158 21.29987639 22.0234375 24 C23.16796875 25.3828125 23.16796875 25.3828125 23.16796875 27.3828125 C4.35796875 27.3828125 -14.45203125 27.3828125 -33.83203125 27.3828125 C-30.66206629 22.62786507 -27.45090637 18.40392931 -23.7890625 14.0625 C-21.72987222 11.48437768 -21.72987222 11.48437768 -20.71875 8.515625 C-17.10478225 -0.76241583 -8.93773994 -0.74981301 0 0 Z " fill="#59A0A1" transform="translate(170.83203125,339.6171875)"/>
<path d="M0 0 C10.98734177 -0.6037001 10.98734177 -0.6037001 15.25 1.9375 C17.61724457 6.080178 18.14475877 9.34520884 17 14 C14.1383552 17.78974582 14.1383552 17.78974582 11 19 C7.22573516 19.39347617 3.81466124 19.2326013 0 19 C0 12.73 0 6.46 0 0 Z " fill="#58A1A2" transform="translate(220,68)"/>
<path d="M0 0 C0 6.27 0 12.54 0 19 C-8.81865285 19.47668394 -8.81865285 19.47668394 -13.5625 17.5625 C-16.51356705 14.46009618 -17.11999879 12.48128329 -17.2734375 8.26171875 C-16.92018726 5.33983464 -16.00468278 3.15539243 -13.9453125 1.01953125 C-9.65652203 -1.22820834 -4.67332255 -0.30813116 0 0 Z " fill="#59A0A1" transform="translate(111,70)"/>
<path d="M0 0 C1.875 1.0625 1.875 1.0625 3 3 C3.91565304 6.61644479 4.38395715 9.78413569 3.25 13.375 C2 15 2 15 -1 17 C-5.90487343 17.55377603 -7.89979388 17.75639171 -12 14.9375 C-14.51930235 11.23727467 -14.7066341 9.3968344 -14 5 C-10.15059139 -1.10595848 -6.85251731 -1.46839657 0 0 Z " fill="#58A1A2" transform="translate(108,211)"/>
<path d="M0 0 C3.4375 1.0625 3.4375 1.0625 5.5 3.25 C6.4375 6.0625 6.4375 6.0625 5.875 9.25 C4.4375 12.0625 4.4375 12.0625 2.625 13.5 C-0.17537543 14.22009654 -1.82531819 13.97489394 -4.5625 13.0625 C-6.375 11.875 -6.375 11.875 -7.5625 10.0625 C-8.10102618 6.44668138 -7.98486225 4.72138511 -6 1.625 C-3.5625 0.0625 -3.5625 0.0625 0 0 Z " fill="#57A2A2" transform="translate(310.5625,473.9375)"/>
<path d="M0 0 C0 2.64 0 5.28 0 8 C-2.7899439 9.17094005 -5.58178597 10.33690927 -8.375 11.5 C-9.1690625 11.83386719 -9.963125 12.16773438 -10.78125 12.51171875 C-11.92207031 12.98544922 -11.92207031 12.98544922 -13.0859375 13.46875 C-13.7876709 13.76201172 -14.4894043 14.05527344 -15.21240234 14.35742188 C-17 15 -17 15 -19 15 C-16.33340797 8.85875776 -7.22481614 0 0 0 Z " fill="#58A1A2" transform="translate(133,151)"/>
<path d="M0 0 C6.80702757 1.04723501 11.01338469 5.84085078 15 11 C4.44191344 7.92482916 4.44191344 7.92482916 0 6 C0 4.02 0 2.04 0 0 Z " fill="#59A0A1" transform="translate(198,153)"/>
</svg>
