<?xml version="1.0" encoding="UTF-8"?>
<svg version="1.1" xmlns="http://www.w3.org/2000/svg" width="512" height="512">
<path d="M0 0 C6.35305575 4.73084791 11.86441831 10.71203216 17.4375 16.3125 C18.25154297 17.12267578 19.06558594 17.93285156 19.90429688 18.76757812 C20.67708984 19.54166016 21.44988281 20.31574219 22.24609375 21.11328125 C22.94404053 21.81235596 23.6419873 22.51143066 24.36108398 23.23168945 C27.24586357 26.3442261 27.29477236 28.88170243 27.203125 33.08984375 C27 35 27 35 26 37 C22.14961244 38.92519378 20.29527008 38.8351914 16 38 C12.37 34.37 8.74 30.74 5 27 C5 140.85 5 254.7 5 372 C9.62 364.08 14.24 356.16 19 348 C26 336 26 336 29.453125 330.08203125 C31.94527011 325.8100815 34.43432736 321.53634714 36.921875 317.26171875 C37.56253906 316.16150391 38.20320313 315.06128906 38.86328125 313.92773438 C40.09581531 311.8109911 41.32761827 309.69382191 42.55859375 307.57617188 C43.38810547 306.15208008 43.38810547 306.15208008 44.234375 304.69921875 C44.72131836 303.86221436 45.20826172 303.02520996 45.70996094 302.1628418 C46.75530981 300.41024043 47.86803563 298.69794655 49 297 C48.78739628 294.02354796 47.62834315 292.41928617 46 289.875 C43.02350657 284.77243983 42.4229545 279.40123937 43.40625 273.60546875 C45.40532056 266.62062104 49.34933264 261.40163114 55.5625 257.625 C62.39759522 254.39386408 69.31274284 254.02541104 76.5625 256.125 C82.62278298 258.37148421 87.09028949 262.01502523 90.4375 267.5625 C92.95747264 273.06354665 92.32425579 279.09133892 92 285 C92.70455322 285.26321045 93.40910645 285.5264209 94.13500977 285.79760742 C97.18883354 287.07925055 99.96658865 288.59139589 102.83984375 290.23828125 C103.97550781 290.88812988 105.11117187 291.53797852 106.28125 292.20751953 C107.17650391 292.72309418 107.17650391 292.72309418 108.08984375 293.24908447 C109.95468363 294.32239001 111.82276908 295.3898646 113.69140625 296.45654297 C119.70940299 299.90037273 125.68694166 303.39334258 131.59765625 307.01953125 C132.59869385 307.62949951 133.59973145 308.23946777 134.63110352 308.86791992 C136.51131638 310.0194723 138.3833098 311.18457876 140.24584961 312.36450195 C141.08253174 312.87585693 141.91921387 313.38721191 142.78125 313.9140625 C143.50376953 314.3673291 144.22628906 314.8205957 144.97070312 315.28759766 C147.01093602 316.24658828 147.01093602 316.24658828 149.06835938 315.23193359 C149.70580078 314.82539551 150.34324219 314.41885742 151 314 C156.76923077 311 156.76923077 311 159 311 C159 287.57 159 264.14 159 240 C157.35 239.34 155.7 238.68 154 238 C148.97585051 234.51385546 145.6241648 231.00393504 144 225 C143.13028527 216.88857894 142.66105304 208.63419445 148 202 C152.39696457 197.03348044 157.43323204 194.08576132 164 193 C170.9367536 192.76250772 177.29052481 193.90459586 183 198 C183.74636719 198.89847656 184.49273437 199.79695312 185.26171875 200.72265625 C187.84775115 203.39675112 187.84775115 203.39675112 191.43359375 202.82421875 C192.77637284 202.47526897 194.11098538 202.09392417 195.4375 201.6875 C196.51849976 201.39504395 196.51849976 201.39504395 197.62133789 201.09667969 C199.21075998 200.66309432 200.79651385 200.21590154 202.37890625 199.75732422 C206.22523342 198.64598789 210.09090693 197.60813908 213.95532227 196.56176758 C215.92636903 196.02523622 217.89566158 195.48221371 219.86303711 194.93237305 C220.7628833 194.68140869 221.66272949 194.43044434 222.58984375 194.171875 C223.39284912 193.9459668 224.19585449 193.72005859 225.02319336 193.48730469 C227 193 227 193 229 193 C228.94199219 192.42636719 228.88398438 191.85273438 228.82421875 191.26171875 C227.72710199 170.60457741 238.02517321 149.46222882 251 134 C251.67417969 133.15179688 252.34835937 132.30359375 253.04296875 131.4296875 C269.09631947 112.21385681 293.41158661 101.42420977 318 99 C334.44707084 98.2262319 350.61753723 100.44125412 365.71484375 107.21875 C368.45530999 108.15566153 369.31021867 108.00074201 372 107 C374.29175484 105.24417678 374.29175484 105.24417678 376.5859375 103.01953125 C380.10992871 99.74078291 383.67894297 96.56038875 387.3515625 93.44921875 C398.00654296 84.72432958 398.00654296 84.72432958 403.11328125 72.5703125 C403.13806815 68.35576491 402.62905786 64.22216025 402.11181641 60.04492188 C401.90317135 56.22917728 403.35356194 53.63346289 405.5234375 50.62109375 C410.99677052 44.61201121 416.51837582 41.34460503 424.671875 40.83203125 C431.87433347 41.10670128 437.4751786 43.36114095 443 48 C449.07161968 55.39760558 449.75117363 62.63754603 449 72 C447.29638533 79.24850065 443.02979229 83.83826101 437 88 C431.48377982 90.88347873 425.08694056 90.35227247 419 90 C418.22986572 89.72816895 417.45973145 89.45633789 416.66625977 89.17626953 C413.79555214 88.69511368 413.79555214 88.69511368 411.30859375 91.02612305 C410.33615721 92.00627415 409.37999345 93.0027415 408.4375 94.01171875 C407.92372803 94.53635208 407.40995605 95.06098541 406.88061523 95.60151672 C405.23904819 97.28327822 403.6192696 98.98428431 402 100.6875 C400.37667326 102.36845821 398.74911915 104.04517975 397.11938477 105.71992493 C396.10737517 106.76275146 395.09978293 107.80988951 394.09741211 108.86198425 C391.23512733 111.84420393 388.2240535 114.42310274 385 117 C384.67 117.66 384.34 118.32 384 119 C384.56589844 119.25265625 385.13179688 119.5053125 385.71484375 119.765625 C403.4491663 129.34519068 414.88497444 151.37968793 420.4765625 169.93359375 C427.35138692 194.81852159 424.01466521 221.25751952 412 244 C407.74914702 251.36525343 402.75473054 257.70585658 396.8828125 263.84375 C394.31767552 266.60126629 394.31767552 266.60126629 393 270 C394.13435988 272.77659669 395.26100454 275.03436234 396.8125 277.5625 C397.43185425 278.58827148 397.43185425 278.58827148 398.0637207 279.63476562 C400.47643884 283.37070529 402.20369886 285.82931472 406.6875 287 C407.3877832 287.11907715 408.08806641 287.2381543 408.80957031 287.36083984 C416.21571842 289.52192943 420.47969934 300.65673385 423.9375 306.8125 C424.92977694 308.55587545 425.92206552 310.29924442 426.91506958 312.04220581 C427.9389697 313.84147826 428.95968801 315.64252745 429.97998047 317.44384766 C433.12047653 322.98145916 436.31319512 328.48895881 439.5 334 C440.74631939 336.16002607 441.99241237 338.3201828 443.23828125 340.48046875 C445.77615993 344.87959075 448.31536583 349.27794321 450.85546875 353.67578125 C453.97839237 359.08306567 457.09742573 364.4925789 460.21435547 369.90332031 C461.97439866 372.95560194 463.73905855 376.0051821 465.50390625 379.0546875 C466.58616549 380.93216026 467.66820826 382.80975783 468.75 384.6875 C469.23944092 385.53030518 469.72888184 386.37311035 470.2331543 387.24145508 C475.95278119 397.19626427 479.27330561 405.90677755 476.34375 417.625 C473.12941321 425.60542237 467.65839052 431.80235783 459.796875 435.30859375 C452.94326776 437.94574262 445.06785612 438.28993859 438.03125 436.05859375 C429.49709747 431.9586018 424.94449179 425.82877867 420 418 C419.38125 417.030625 418.7625 416.06125 418.125 415.0625 C417 413 417 413 417 411 C415.65277808 411.00170874 415.65277808 411.00170874 414.27833956 411.003452 C361.09414653 411.07052782 307.90995796 411.12203009 254.72573112 411.15319599 C248.3455557 411.15694829 241.96538037 411.16083124 235.58520508 411.16479492 C234.31498073 411.16558185 233.04475638 411.16636878 231.73604039 411.16717956 C211.14540029 411.18024776 190.55478522 411.20390937 169.96415999 411.23145839 C148.84986536 411.25947328 127.73558388 411.27616795 106.62127143 411.28226548 C93.5835458 411.28639007 80.5458909 411.29943586 67.50818703 411.3237494 C58.57823105 411.33955829 49.64831184 411.3444114 40.71834286 411.34050413 C35.55956884 411.338575 30.40091873 411.34161499 25.24216652 411.35761642 C20.52521532 411.37214134 15.80847219 411.37300095 11.0915117 411.36269668 C9.37948702 411.36142186 7.66744971 411.36529001 5.95545014 411.37464955 C3.63888302 411.38658415 1.32307986 411.38026499 -0.99347401 411.36914349 C-2.28338397 411.37028265 -3.57329393 411.37142181 -4.90229207 411.37259549 C-8 411 -8 411 -9.87540787 409.72692853 C-12.35895826 405.91317782 -12.12831767 402.07245386 -12.1386652 397.62005997 C-12.14150742 396.97892771 -12.14434964 396.33779545 -12.14727798 395.67723495 C-12.15562625 393.52034504 -12.15689329 391.36350883 -12.15821838 389.206604 C-12.16278364 387.64810075 -12.16778361 386.08959872 -12.17318195 384.53109813 C-12.18677655 380.24174487 -12.19418525 375.95239956 -12.20060861 371.66303039 C-12.20860674 367.04000781 -12.22230654 362.41700177 -12.23532104 357.79399109 C-12.25709212 349.78207161 -12.27523431 341.77015046 -12.29092598 333.75821686 C-12.31361885 322.17424269 -12.34176249 310.59028684 -12.37124526 299.0063282 C-12.41892831 280.21304849 -12.46219057 261.41976131 -12.50268555 242.62646484 C-12.54203684 224.3683209 -12.58346219 206.1101836 -12.62768555 187.85205078 C-12.63040982 186.72700434 -12.63313409 185.6019579 -12.63594092 184.44281915 C-12.64962033 178.79890674 -12.66334062 173.15499443 -12.67708123 167.51108217 C-12.79105721 120.67406865 -12.89786409 73.83704074 -13 27 C-13.74185547 27.78391113 -14.48371094 28.56782227 -15.24804688 29.37548828 C-16.23778951 30.39923866 -17.22805129 31.4224873 -18.21875 32.4453125 C-18.70569336 32.96262939 -19.19263672 33.47994629 -19.69433594 34.01293945 C-22.47739024 36.86347584 -24.41259627 38.80586643 -28.5 38.875 C-32 38 -32 38 -34 37 C-35.61883893 33.76232215 -35.5901093 30.49870684 -35 27 C-33.31720432 24.60817726 -31.95593789 23.0064649 -29.85546875 21.07421875 C-29.06708366 20.30281303 -29.06708366 20.30281303 -28.26277161 19.51582336 C-26.58894626 17.8865205 -24.8895134 16.28728169 -23.1875 14.6875 C-22.05481699 13.5949865 -20.92393663 12.50060078 -19.79492188 11.40429688 C-17.72209627 9.39662373 -15.63977772 7.40013018 -13.54370117 5.41674805 C-12.10002939 4.04512822 -10.66841986 2.65976709 -9.27856445 1.23364258 C-6.21409385 -1.72315902 -3.91538013 -1.16011263 0 0 Z M278 148 C277.30390625 148.64195312 276.6078125 149.28390625 275.890625 149.9453125 C267.83884255 158.15313725 260.66125505 171.51160239 259 183 C259.33 183.99 259.66 184.98 260 186 C263.94613639 185.07466482 267.87603343 184.09912369 271.7980957 183.07641602 C273.13220122 182.73605823 274.46986747 182.40934181 275.81079102 182.09692383 C283.5981612 180.60261773 283.5981612 180.60261773 289.46166992 175.87573242 C290.19850179 173.57874639 290.6289455 171.37978281 291 169 C293.7533862 163.37139635 296.91492865 159.09246772 302.80078125 156.6484375 C307.25344363 155.33557435 312.49110803 153.89426617 316.89672852 155.8359375 C319.53682095 156.88352237 321.15165954 157.27716492 324 157 C328.6374947 153.84541826 332.27053009 149.85177332 336.0625 145.75 C337.12709395 144.64735592 338.19413083 143.54706492 339.26367188 142.44921875 C344.48604321 137.82324784 344.48604321 137.82324784 347 132 C322.11180296 124.84038167 297.17265582 130.2351266 278 148 Z M359.56469727 141.18652344 C359.07026123 141.73856445 358.5758252 142.29060547 358.06640625 142.859375 C357.5051001 143.47506348 356.94379395 144.09075195 356.36547852 144.72509766 C355.77049561 145.39331543 355.1755127 146.0615332 354.5625 146.75 C347.30891728 154.77178875 347.30891728 154.77178875 343.375 158.4921875 C342.81611084 159.02360352 342.25722168 159.55501953 341.68139648 160.10253906 C340.62214697 161.09869046 339.55163511 162.08303299 338.46899414 163.05371094 C336.84100274 164.53268931 336.84100274 164.53268931 335 167 C335.06748843 169.50135834 335.06748843 169.50135834 336 172 C336.60028023 179.68555508 336.91207416 186.69473522 332 193 C327.55580859 197.7074729 323.30425653 200.66049455 316.73046875 201.3359375 C309.68895201 201.41357275 303.72139844 201.46704263 298 197 C296.88044922 195.64841797 296.88044922 195.64841797 295.73828125 194.26953125 C293.15568115 191.60188781 293.15568115 191.60188781 289.609375 192.2109375 C288.31416195 192.56865017 287.02764373 192.95887296 285.75 193.375 C285.06413818 193.57327393 284.37827637 193.77154785 283.67163086 193.97583008 C282.20749423 194.40264237 280.74714399 194.84262307 279.29052734 195.29443359 C276.93822337 196.01902947 274.57620531 196.69606411 272.20703125 197.36328125 C265.09142945 198.81525989 265.09142945 198.81525989 259 202 C257.40267098 216.05649534 266.34548867 230.68523765 274.6875 241.25 C287.29747329 255.71325724 304.05744759 263.72072809 323.12109375 265.16015625 C339.76011996 265.78855954 357.34017077 259.94026452 369.8984375 248.95703125 C370.59195313 248.31121094 371.28546875 247.66539062 372 247 C372.94746094 246.17048828 372.94746094 246.17048828 373.9140625 245.32421875 C386.61534657 233.60210857 392.73410556 216.75142861 394.28515625 199.90234375 C394.89156482 180.31271049 387.16752339 162.9036125 373.92578125 148.7890625 C369.27900335 144.02354359 369.27900335 144.02354359 364 140 C361.07499724 139.68142547 361.07499724 139.68142547 359.56469727 141.18652344 Z M210.70898438 212.46069336 C209.15261615 212.86199542 207.59294166 213.25068584 206.03027344 213.62670898 C203.76951099 214.17143375 201.52200529 214.75484801 199.2734375 215.34765625 C198.57447357 215.50839127 197.87550964 215.66912628 197.15536499 215.83473206 C194.92046991 216.38503279 194.92046991 216.38503279 192 218 C190.4918761 221.44670324 190.4918761 221.44670324 190 225 C186.88507798 232.98453809 182.65137061 236.23754916 175 240 C174.86099936 249.57917186 174.75437976 259.15799682 174.68912697 268.737957 C174.65780902 273.186344 174.61532917 277.63404126 174.54736328 282.08203125 C174.48218506 286.37443061 174.44629745 290.66616652 174.43073654 294.95902252 C174.4196472 296.59698179 174.39799144 298.23490459 174.36561966 299.87258148 C174.32207188 302.16682963 174.31606447 304.45833496 174.31884766 306.75292969 C174.30552399 308.05864929 174.29220032 309.3643689 174.2784729 310.70965576 C174.69482406 314.262053 174.69482406 314.262053 177.93978882 316.3394165 C179.45459335 317.16140533 179.45459335 317.16140533 181 318 C182.64453125 319.81640625 182.64453125 319.81640625 183.8125 321.5625 C184.21082031 322.14128906 184.60914063 322.72007812 185.01953125 323.31640625 C188.46723948 329.23657457 188.03318255 338.03531757 186.3515625 344.48828125 C183.7537472 350.20569527 179.27822022 354.39389211 173.671875 357.140625 C167.39423484 359.15974903 159.62804123 359.1658226 153.5625 356.4375 C147.89534657 353.05877428 144.08597426 348.21930385 142 342 C141.95886272 340.02907467 141.96207013 338.05684812 142.00390625 336.0859375 C141.68594653 331.59409662 141.68594653 331.59409662 139.15576172 328.03613281 C136.490686 326.33334189 133.8029043 324.96370501 130.9375 323.625 C128.83838661 322.54710378 126.74077801 321.46627307 124.64453125 320.3828125 C123.55350098 319.8352832 122.4624707 319.28775391 121.33837891 318.72363281 C115.80649942 315.86747739 110.47713779 312.67663911 105.125 309.5 C101.42270885 307.32282722 97.71338373 305.15818516 94 303 C93.14269287 302.49331787 92.28538574 301.98663574 91.40209961 301.46459961 C90.6003833 301.00061768 89.79866699 300.53663574 88.97265625 300.05859375 C88.26890869 299.64665771 87.56516113 299.23472168 86.84008789 298.81030273 C84.90917974 297.74692145 84.90917974 297.74692145 82.3125 298.5625 C81.549375 299.036875 80.78625 299.51125 80 300 C77.08211073 301.18105042 74.66915039 302.01516933 71.50146484 301.94335938 C67.26988404 301.88708638 64.17147909 301.86155517 61.03466797 304.90991211 C59.23253208 307.67627366 57.72585563 310.48395109 56.25 313.4375 C55.05680957 315.64757831 53.86277043 317.85719859 52.66796875 320.06640625 C51.76377197 321.78754639 51.76377197 321.78754639 50.84130859 323.54345703 C47.89573306 329.07295297 44.72041313 334.46496369 41.5625 339.875 C40.30972989 342.04472596 39.05843751 344.21530579 37.80859375 346.38671875 C37.18452637 347.47001465 36.56045898 348.55331055 35.91748047 349.66943359 C33.955581 353.07715356 31.99530632 356.48580477 30.03515625 359.89453125 C28.73196735 362.15896727 27.42858515 364.42329206 26.125 366.6875 C25.50173828 367.7707959 24.87847656 368.8540918 24.23632812 369.97021484 C20.39036297 376.63895388 16.49552338 383.27372587 12.43603516 389.81518555 C10.55756418 392.69378614 10.55756418 392.69378614 10 396 C141.01 396 272.02 396 407 396 C405.5660705 392.41517625 404.22791929 389.48559415 402.3046875 386.2109375 C401.49016113 384.81887085 401.49016113 384.81887085 400.65917969 383.39868164 C400.07040039 382.4008667 399.48162109 381.40305176 398.875 380.375 C398.26043945 379.32755615 397.64587891 378.2801123 397.01269531 377.20092773 C395.01341732 373.79768216 393.00829421 370.39792916 391 367 C390.48971252 366.13662018 390.48971252 366.13662018 389.96911621 365.25579834 C384.43720205 355.89915313 378.89517683 346.54842981 373.33837891 337.20654297 C371.91063241 334.80580695 370.48616344 332.40315868 369.0625 330 C368.65547852 329.3181665 368.24845703 328.63633301 367.82910156 327.93383789 C365.18899193 323.46860392 363.85941019 320.24611194 363.875 315.0625 C363.87242187 314.20785156 363.86984375 313.35320312 363.8671875 312.47265625 C364 310 364 310 364.63891602 308.08862305 C365.11508525 305.33431081 364.4207993 304.42196437 362.91015625 302.109375 C362.22856445 301.04589844 362.22856445 301.04589844 361.53320312 299.9609375 C361.04787109 299.23132813 360.56253906 298.50171875 360.0625 297.75 C359.58103516 297.00492187 359.09957031 296.25984375 358.60351562 295.4921875 C357.41333186 293.65388387 356.21204676 291.82393233 355 290 C354.2265625 290.13277344 353.453125 290.26554687 352.65625 290.40234375 C351.09390625 290.66724609 351.09390625 290.66724609 349.5 290.9375 C347.96859375 291.19853516 347.96859375 291.19853516 346.40625 291.46484375 C318.76268541 295.80792672 291.66390958 291.36691938 268.359375 275.1640625 C265.80907862 273.19921151 263.39651447 271.14964689 261 269 C260.09378906 268.18789063 259.18757812 267.37578125 258.25390625 266.5390625 C251.07345879 259.7470165 245.93019295 252.51306596 241 244 C240.50757813 243.15824219 240.01515625 242.31648438 239.5078125 241.44921875 C234.13385165 231.51907369 231.16391764 220.01630798 229 209 C222.70532698 209 216.76883665 210.87581879 210.70898438 212.46069336 Z " fill="#58A1A2" transform="translate(35,65)"/>
<path d="M0 0 C2.28307484 2.00088884 4.21555566 4.25943774 6.1875 6.5625 C11.68730363 12.71676224 17.38103075 18.03577306 24 23 C24.78213867 23.60255615 24.78213867 23.60255615 25.58007812 24.21728516 C41.14516501 36.17593958 58.98015533 45.28374214 78.765625 47.25 C82.13086736 48.37959184 83.14865315 49.99451565 85 53 C85.98157592 55.85023276 86.56927566 58.72793782 87.125 61.6875 C87.28967773 62.524021 87.45435547 63.36054199 87.62402344 64.22241211 C95.57810037 106.12307181 89.35187674 148.63550688 65.62890625 184.671875 C53.11757481 203.00248902 37.73444003 218.74748914 20 232 C19.01644531 232.74378906 18.03289062 233.48757812 17.01953125 234.25390625 C14.37687506 236.21819372 11.70715852 238.12581333 9 240 C8.13503906 240.60199219 7.27007812 241.20398438 6.37890625 241.82421875 C-1.76058853 247.13904868 -1.76058853 247.13904868 -6.75390625 246.70703125 C-38.65087951 236.6664188 -69.23369811 198.29513254 -84 170 C-92.29659662 153.79175712 -98.11796624 136.16040368 -100 118 C-100.10957031 117.01128906 -100.21914062 116.02257812 -100.33203125 115.00390625 C-102.32991275 94.51896126 -100.16912334 73.88966106 -95 54 C-94.7525 53.03964844 -94.505 52.07929687 -94.25 51.08984375 C-93 49 -93 49 -90.30078125 47.76171875 C-86.93968569 46.98608131 -83.59119296 46.37165132 -80.1875 45.8125 C-60.27361529 42.07538317 -43.07682242 31.15526662 -28 18 C-27.27296875 17.39414062 -26.5459375 16.78828125 -25.796875 16.1640625 C-21.03932727 12.15101651 -17.03035613 7.72949954 -13 3 C-8.60159015 -1.76494401 -6.10373907 -2.80965767 0 0 Z M-30 72 C-31.2263757 74.45275141 -31.11415314 76.0505781 -31.09765625 78.7890625 C-31.09282227 80.20058594 -31.09282227 80.20058594 -31.08789062 81.640625 C-31.07951172 82.62546875 -31.07113281 83.6103125 -31.0625 84.625 C-31.05798828 85.61757812 -31.05347656 86.61015625 -31.04882812 87.6328125 C-31.03702145 90.0886016 -31.020554 92.54427104 -31 95 C-31.58491211 94.98952637 -32.16982422 94.97905273 -32.77246094 94.96826172 C-35.43159663 94.92659736 -38.09066353 94.90064099 -40.75 94.875 C-41.67039062 94.85824219 -42.59078125 94.84148437 -43.5390625 94.82421875 C-44.42851563 94.81777344 -45.31796875 94.81132813 -46.234375 94.8046875 C-47.05131836 94.79421387 -47.86826172 94.78374023 -48.70996094 94.77294922 C-51.3178027 95.03150922 -52.83022662 95.53009741 -55 97 C-56.7284942 99.8500783 -57.25640011 102.00971838 -57.29052734 105.32202148 C-57.30328705 106.16647324 -57.31604675 107.01092499 -57.32919312 107.88096619 C-57.33141876 108.78520828 -57.33364441 109.68945038 -57.3359375 110.62109375 C-57.3425943 111.55800552 -57.3492511 112.4949173 -57.35610962 113.46022034 C-57.36622455 115.43968749 -57.370927 117.41918867 -57.37060547 119.39868164 C-57.37497941 122.42326103 -57.4113132 125.44638175 -57.44921875 128.47070312 C-57.45508703 130.39582835 -57.45905635 132.3209605 -57.4609375 134.24609375 C-57.47530853 135.14831161 -57.48967957 136.05052948 -57.50448608 136.98008728 C-57.47489808 141.055798 -57.30049694 143.45688343 -55.29638672 147.07910156 C-52.54218767 149.38295422 -51.34559104 149.5914416 -47.796875 149.48828125 C-46.8171875 149.47216797 -45.8375 149.45605469 -44.828125 149.43945312 C-43.81234375 149.39755859 -42.7965625 149.35566406 -41.75 149.3125 C-40.71875 149.28994141 -39.6875 149.26738281 -38.625 149.24414062 C-36.08185935 149.18527163 -33.54166887 149.10310065 -31 149 C-31.01571045 149.65073486 -31.0314209 150.30146973 -31.04760742 150.97192383 C-31.10994649 153.91869424 -31.14898684 156.86532598 -31.1875 159.8125 C-31.21263672 160.83666016 -31.23777344 161.86082031 -31.26367188 162.91601562 C-31.27333984 163.89892578 -31.28300781 164.88183594 -31.29296875 165.89453125 C-31.3086792 166.80050049 -31.32438965 167.70646973 -31.34057617 168.63989258 C-30.92258732 171.53645042 -30.27800019 172.21899291 -28 174 C-25.86844405 174.45258777 -25.86844405 174.45258777 -23.484375 174.38818359 C-22.11780762 174.40236832 -22.11780762 174.40236832 -20.72363281 174.4168396 C-19.74233398 174.41076691 -18.76103516 174.40469421 -17.75 174.3984375 C-16.7403418 174.40130768 -15.73068359 174.40417786 -14.69042969 174.40713501 C-12.55533284 174.40917688 -10.42021734 174.40363846 -8.28515625 174.39111328 C-5.01259629 174.37506178 -1.74127144 174.39095825 1.53125 174.41015625 C3.6041694 174.40817384 5.67708803 174.40433021 7.75 174.3984375 C9.22194824 174.40754654 9.22194824 174.40754654 10.72363281 174.4168396 C11.63467773 174.40738312 12.54572266 174.39792664 13.484375 174.38818359 C14.28584961 174.38579681 15.08732422 174.38341003 15.91308594 174.38095093 C18.53622626 173.90211581 19.38950176 173.09224267 21 171 C21.94137255 168.17588235 22.11725382 166.47081968 22.09765625 163.55078125 C22.09443359 162.70322266 22.09121094 161.85566406 22.08789062 160.98242188 C22.07951172 160.10134766 22.07113281 159.22027344 22.0625 158.3125 C22.05798828 157.41982422 22.05347656 156.52714844 22.04882812 155.60742188 C22.03704983 153.40488013 22.02060164 151.20247401 22 149 C22.62044189 149.01571045 23.24088379 149.0314209 23.88012695 149.04760742 C26.69082528 149.10996214 29.50137812 149.14899148 32.3125 149.1875 C33.28896484 149.21263672 34.26542969 149.23777344 35.27148438 149.26367188 C36.67817383 149.27817383 36.67817383 149.27817383 38.11328125 149.29296875 C38.97735596 149.3086792 39.84143066 149.32438965 40.73168945 149.34057617 C43.56037134 148.91586288 44.25498677 148.22994135 46 146 C46.45291785 143.82764758 46.45291785 143.82764758 46.38818359 141.39257812 C46.40236832 139.99597961 46.40236832 139.99597961 46.4168396 138.57116699 C46.41076691 137.56799438 46.40469421 136.56482178 46.3984375 135.53125 C46.40130768 134.49939575 46.40417786 133.4675415 46.40713501 132.40441895 C46.40917701 130.22224377 46.40363771 128.04005035 46.39111328 125.85791016 C46.37506205 122.512931 46.39095791 119.16916021 46.41015625 115.82421875 C46.40817384 113.70572649 46.40433022 111.58723499 46.3984375 109.46875 C46.40451019 108.46557739 46.41058289 107.46240479 46.4168396 106.42883301 C46.40738312 105.49776733 46.39792664 104.56670166 46.38818359 103.60742188 C46.38460342 102.37856262 46.38460342 102.37856262 46.38095093 101.12487793 C45.90943399 98.49483856 45.06368019 97.64313842 43 96 C40.65147472 94.82573736 39.26225935 94.88491827 36.6484375 94.90234375 C35.79765625 94.90556641 34.946875 94.90878906 34.0703125 94.91210938 C33.18085938 94.92048828 32.29140625 94.92886719 31.375 94.9375 C30.4778125 94.94201172 29.580625 94.94652344 28.65625 94.95117188 C26.43743352 94.96297409 24.21874982 94.97943845 22 95 C22.02320313 93.75863281 22.04640625 92.51726562 22.0703125 91.23828125 C22.08907731 89.5963602 22.10727675 87.95443262 22.125 86.3125 C22.15013672 85.08756836 22.15013672 85.08756836 22.17578125 83.83789062 C22.29417778 77.63972976 22.29417778 77.63972976 20 72 C15.45999337 69.49678093 10.97737005 69.70989424 5.9375 69.734375 C5.06859131 69.73246155 4.19968262 69.7305481 3.30444336 69.72857666 C1.47216501 69.72721911 -0.36012309 69.73088545 -2.19238281 69.73925781 C-4.990455 69.74996348 -7.78788519 69.73934798 -10.5859375 69.7265625 C-12.36979308 69.72788417 -14.15364826 69.73044672 -15.9375 69.734375 C-16.77095947 69.73032654 -17.60441895 69.72627808 -18.46313477 69.72210693 C-22.70944831 69.75623883 -26.190577 69.88468928 -30 72 Z " fill="#58A1A2" transform="translate(169,11)"/>
<path d="M0 0 C8.91 0 17.82 0 27 0 C27.3125 9.1875 27.3125 9.1875 27.38793945 12.05541992 C27.59276366 16.75042932 27.8451086 20.26059191 31 24 C33.65918166 24.88639389 35.48064641 25.17989025 38.23046875 25.31640625 C38.95387451 25.35451416 39.67728027 25.39262207 40.42260742 25.43188477 C41.79122925 25.49653931 41.79122925 25.49653931 43.1875 25.5625 C47.5496875 25.7790625 47.5496875 25.7790625 52 26 C52 34.91 52 43.82 52 53 C43.3125 53.4375 43.3125 53.4375 40.6027832 53.56811523 C36.64834029 53.77787765 32.86442928 54.06340716 29 55 C27.85151646 59.73870101 27.67122941 64.46359771 27.4375 69.3125 C27.293125 72.179375 27.14875 75.04625 27 78 C18.09 78 9.18 78 0 78 C-0.1875 67.6875 -0.1875 67.6875 -0.20776367 64.44799805 C-0.27124384 59.17897052 -0.27124384 59.17897052 -2.9375 54.875 C-7.23949182 53.64585948 -11.35693687 53.42970175 -15.8125 53.3125 C-18.844375 53.209375 -21.87625 53.10625 -25 53 C-25 44.09 -25 35.18 -25 26 C-15.8125 25.6875 -15.8125 25.6875 -12.94458008 25.61206055 C-9.45118328 25.45965782 -6.31502394 25.08679231 -2.9375 24.15625 C0.4376324 20.40005426 -0.21646239 15.66875946 -0.1875 10.8125 C-0.125625 7.244375 -0.06375 3.67625 0 0 Z " fill="#59A1A2" transform="translate(150,94)"/>
</svg>
